<?xml version="1.0" encoding="utf-8"?>
<!-- Generator: Adobe Illustrator 27.9.0, SVG Export Plug-In . SVG Version: 6.00 Build 0)  -->
<svg version="1.1" id="Layer_2_00000102503880363209789880000013909105924607342768_"
	 xmlns="http://www.w3.org/2000/svg" xmlns:xlink="http://www.w3.org/1999/xlink" x="0px" y="0px" viewBox="0 0 708.3 939.9"
	 style="enable-background:new 0 0 708.3 939.9;" xml:space="preserve">
<style type="text/css">
	.st0{fill:#FFFFFF;}
	.st1{fill:none;}
	.st2{fill:#854ABE;}
	.st3{fill:#2E2C2D;}
	.st4{fill:#6D39A8;}
	.st5{fill:#FEFEFE;}
	.st6{fill:#040404;}
	.st7{fill:#542688;}
	.st8{fill:#2F2D2D;}
	.st9{fill:#DD8C3D;}
	.st10{fill:#676767;}
	.st11{fill:#030303;}
	.st12{fill:#010101;}
	.st13{fill:#020202;}
	.st14{fill:#F4E051;}
	.st15{fill:#F7B551;}
	.st16{fill:#939393;}
</style>
<g id="Layer_3">
	<g>
		<path class="st0" d="M356.6,939.9c-12,0-22.9-1.1-33.3-3.3c-6.4-1.3-11.7-3.2-16.3-5.7c-9.7-5.3-15.2-14.5-14.8-24.6
			c0.2-5.7,2.3-11.1,6.1-15.5c-8.2-2.8-15-4.6-21.3-5.7c-2.4-0.4-4.6-0.8-6.5-1.1l-0.1,0c-9.7-1.6-18.1-3-24.9-10.6
			c-6.7-7.5-7.2-16-7.8-25.9l0-0.1c-0.1-1.7-0.2-3.5-0.4-5.6c-0.4-5.7-0.5-11.9-0.4-19.4c-15.7-8.8-26.5-22.4-31.2-39.5
			c-12.3-8.3-16.6-22.4-11.4-37.7c4.6-13.8,10.7-27.7,18-41.3c14.2-26.5,29.3-49.9,46.3-71.6c-2.3-0.7-5-1.5-7.7-2.4
			c-21.1-7-41.8-17.1-61.3-30c-22.2-14.6-36.9-34.5-43.9-59.2c-5.5-19.4-11.3-45.3-7.5-73.3c-11.5-15.9-7.3-33.3-4.8-43.7l0.1-0.2
			c0.2-1,0.5-1.9,0.7-2.8c0.8-3.4,1-6.1,0.9-9.3c-0.2-4.4-0.3-8.8-0.5-13.2c-0.5-11.1-0.9-22.5-1.1-34.1c-3.7-0.5-7.4-0.9-11.2-1.4
			l-0.8-0.1c-11.7-1.4-17.2-8.1-19.4-12.1c-2.2-3.9-5.2-12.1-0.3-22.8c3.4-7.3,6.7-14.8,9.9-22l0.2-0.4c1.9-4.3,3.9-8.7,5.8-13
			c0.8-1.7,2.6-5.7,6.1-9.3c-3.3-1.6-6.5-3.4-9.5-5.2c-0.6,2.2-1.3,4.4-1.9,6.8c-2.5,9.2-5.3,19.6-11.7,29.7
			c-5.1,8-13.2,12.6-22.1,12.6c-5,0-10.1-1.5-14.7-4.4c-1.6-1-3.3-2-4.9-3l-0.2-0.1c-2.6-1.6-5.3-3.2-8-5
			c-14.2-9.1-15-24.2-8.4-34.5l0.4-0.6c6.8-10.6,14.4-22.7,25.8-32.6c3.3-2.9,6.8-4.8,10.6-5.9c-5.8-10.4-9.7-21.5-11.6-33.2
			c-0.3-1.9-0.6-4-0.8-6.4c-2.8,0.2-5.2,0.3-7.1,0.3c-0.9,0-1.8,0-2.6,0c-0.7,0-1.4,0-2.1,0c-0.8,0-1.4,0-2,0l-0.7,0l-0.8,0
			c-1.2,0-2.3,0-3.4,0c-6.2-0.1-12.7-0.1-19.6-1.4c-12-2.2-20.8-9.9-24.1-20.9l-0.2-0.8c-1.3-4.3-2.8-9.2-3.5-14.7
			c-1.8-14.3,4.4-22.5,8.3-26.2c2.9-2.7,9.3-7.3,19.3-7.3c2.4,0,5,0.3,7.5,0.8c5.5,1.1,11.3,2.8,17.2,5.1c4.1,1.6,8.1,3.3,12,4.9
			c3.6,1.5,6.9,2.9,10.1,4.2c11.5-26.7,33.5-47.2,60.4-56.2c6.4-2.1,13-3.8,19.3-4.7c-0.8-2.6-1.3-5.5-1.5-8.5
			c-0.9-15.6-0.7-30.7-0.2-44.7c0.5-17.4,10.3-25.5,18.4-29.3l4.1-1.9h15.9l3.5,1.3c9.5,3.6,17.7,6.7,22.7,15.8
			c5.1,9.3,3.3,18.3,1.3,27.8c-1.5,7.4-3.3,14.6-5,21.7l-0.1,0.2c-0.9,3.7-1.8,7.4-2.7,11.1c-1.2,5-3.4,9.5-6.7,13.3
			c11.1,4.5,21.3,10.7,30.2,18.4c6.9,6,12.9,12.9,18,20.4c7.4-6.4,15.8-13.7,25.9-19.8c3.2-2,10-6.1,18.2-6.1c2.9,0,5.9,0.5,8.7,1.6
			c12,4.5,15.7,16.2,17.3,21.2c0.2,0.8,0.5,1.6,0.6,2.4l2.7,2.5v23.3l-1.7,1.4c17.1,0,34.6-0.1,50.1-0.2l0.2,0
			c21.2-0.1,43.2-0.2,65-0.2c35,0,63.6,0.3,90,1c32.2,0.9,60.2,7.2,85.4,19.3c46,22.1,74.9,60.3,85.7,113.5
			c4,19.5,5.9,39.2,5.6,58.4c-0.1,5.2-0.1,10.8-0.1,15.7c0,16.7-0.1,34-2.1,51.6c4.8,10.8,4.5,21,4.3,29.3l0,0.2
			c0,1.2-0.1,2.3-0.1,3.5c-0.1,7.6-2.3,13.8-6.6,18.4c0.2,2.1,0.5,4.7,0.6,7.5c0.4,34.5-2.6,70.9-27.4,102.7
			c-15.1,19.4-35.5,29.8-53.4,39l-0.2,0.1c-3.1,1.6-6.2,3.1-9.2,4.5c9,9.2,16.2,19.2,23.3,28.9l1.5,2.1c0.7,0.9,1.6,2,2.7,3.3
			c3,3.5,7.1,8.3,9.9,14.9c11.1,25.9,0.3,58.2-24.1,72c-6.8,3.9-13.6,5.8-20.1,5.8c-5.2,0-9.3-1.2-12.1-2.4
			c8.4,39.4,11.2,70.5,8.9,100.5c-0.2,2.6-0.5,5-0.8,7.1l0,0.2c-0.1,1.1-0.3,2.2-0.4,3.3c-1.4,13.7-10.2,23.3-23.5,25.7
			c-0.8,0.1-2.2,0.6-3.5,1c-3.7,1.1-8.7,2.6-14.5,2.7c-5.8,0.1-12,2.2-18.3,4.7c3.7,4.4,5.8,9.7,6.1,15.6
			c0.3,5.3-0.8,18.6-16.9,26.1c-7.6,3.6-16.1,5.8-25.2,6.6c-8.4,0.7-16.6,1.1-24.4,1.1c-15,0-28.7-1.3-42-4.1
			c-0.4-0.1-0.8-0.1-1.2-0.2l-0.3-0.1c-3.3-0.5-8.2-1.3-13.2-3.9c-1.6-0.8-3.1-1.8-4.4-2.9c-1.8,1.3-3.8,2.4-6,3.4
			c-8.7,3.8-17.1,4.7-24.4,5.6l-1,0.1C380.3,938.8,368.9,939.9,356.6,939.9L356.6,939.9z"/>
		<path class="st0" d="M4.3,178.3l0.2,0.8l0,0c3.3,10.9,11.9,18.4,23.7,20.6c6.9,1.3,13.3,1.4,19.6,1.4c1.1,0,2.3,0,3.4,0l0.7,0
			l0.7,0c1.1-0.1,2.5,0,4.1,0c2.9,0,6.4,0.1,10.1-0.3c0.2,2.3,0.5,4.6,0.9,6.9c2,12.1,6.1,23.4,11.9,33.6c-3.9,1-7.6,3-11.1,6
			c-11.3,9.9-19,21.9-25.7,32.5l-0.4,0.6c-6.4,10.1-5.6,24.9,8.3,33.8c2.7,1.7,5.4,3.4,8,4.9c1.7,1,3.4,2.1,5.1,3.1
			c4.7,2.9,9.6,4.3,14.5,4.3c8.5,0,16.5-4.3,21.7-12.4c6.4-10,9.2-20.4,11.7-29.6c0.7-2.6,1.4-5.1,2.1-7.4c3.4,2.2,6.9,4.1,10.6,5.9
			c-3.8,3.7-5.7,7.9-6.5,9.7c-2,4.5-4,9-6,13.4c-3.2,7.2-6.6,14.7-9.9,22c-4.8,10.5-1.9,18.5,0.2,22.3c2.2,3.8,7.5,10.5,19,11.8
			l0.8,0.1c4,0.5,7.8,0.9,11.6,1.4c0.2,11.6,0.6,23.1,1.1,34.5c0.2,4.4,0.4,8.8,0.5,13.2c0.1,3.2-0.2,5.9-0.9,9.4
			c-0.2,1-0.5,2.1-0.7,3.1c-2.4,10.1-6.7,27.7,4.8,43.5c-3.9,27.8,1.9,53.6,7.4,73.3c7,24.5,21.7,44.4,43.7,58.9
			c19.5,12.9,40.1,23,61.2,30c2.8,0.9,5.7,1.8,8.4,2.7c-17.1,21.8-32.5,45.6-46.7,72.1c-7.3,13.6-13.3,27.5-17.9,41.2
			c-6,17.9,1.4,30.6,11.4,37.3c4.7,17.2,15.4,30.7,31.3,39.5c-0.1,6.4-0.1,13,0.4,19.6c0.2,2.1,0.3,4,0.4,5.7
			c0.6,9.8,1.1,18.2,7.7,25.6c6.6,7.4,15,8.8,24.6,10.4c1.9,0.3,4.1,0.7,6.6,1.1c7.5,1.4,14.8,3.5,22.1,6c-3.9,4.4-6.2,9.8-6.4,15.7
			c-0.4,9.9,5.1,18.9,14.6,24.1c4.6,2.5,9.8,4.3,16.2,5.7c11.4,2.4,22.6,3.2,33.2,3.2c11.4,0,22-1,31.1-2.1l1-0.1
			c7.3-0.9,15.6-1.8,24.3-5.6c2.4-1,4.5-2.2,6.3-3.5c1.4,1.2,3,2.2,4.7,3.1c4.9,2.5,9.8,3.3,13,3.8c0.6,0.1,1.1,0.2,1.6,0.3
			c20.1,4.1,41.7,5.1,66.2,2.9c9.1-0.8,17.5-3,25-6.5c15.8-7.4,16.9-20.4,16.6-25.6c-0.3-6.1-2.6-11.6-6.5-15.9
			c7-2.7,13.2-4.9,19.2-5c5.8-0.1,10.8-1.6,14.4-2.7c1.4-0.4,2.8-0.8,3.6-1c13-2.4,21.7-11.8,23.1-25.2c0.1-1.2,0.3-2.4,0.4-3.5
			c0.3-2.1,0.6-4.5,0.8-7.1c2.2-30.2-0.5-61.3-9-101c0-0.1-0.1-0.2-0.1-0.4c6,2.8,17.5,5.6,32.7-3c24.1-13.6,34.8-45.6,23.8-71.3
			c-2.8-6.6-6.9-11.3-9.9-14.8c-1-1.2-2-2.4-2.7-3.3l-1.5-2.1c-7-9.7-14.5-20-23.7-29.3c3.2-1.5,6.5-3.1,9.8-4.8l0.2-0.1
			c17.9-9.2,38.2-19.6,53.3-38.9c24.7-31.7,27.7-68,27.3-102.4c0-2.9-0.3-5.4-0.6-7.5c0-0.1,0-0.1,0-0.2c3.4-3.6,6.5-9.3,6.6-18.2
			c0-1.2,0-2.4,0.1-3.7c0.2-8.3,0.5-18.5-4.3-29.2c2-17.6,2.1-34.9,2.1-51.7c0-5.2,0-10.5,0.1-15.7c0.3-19.1-1.6-38.8-5.6-58.3
			c-10.8-53-39.5-91.1-85.4-113.1c-25.2-12.1-53.1-18.4-85.2-19.3c-51.8-1.4-104.4-1.1-155.2-0.8c-16.9,0.1-34.3,0.2-51.4,0.2
			l2.5-2.2v-22.9l-2.6-2.5c-0.2-0.8-0.4-1.6-0.7-2.5c-1.5-4.9-5.2-16.4-17-20.9c-11.8-4.4-22,1.8-26.4,4.5
			c-9.9,6.1-18.2,13.2-26.2,20.2c-5-7.6-11.2-14.6-18.2-20.8c-9.1-8-19.5-14.2-30.7-18.6c3.4-3.8,5.9-8.4,7.1-13.6
			c0.9-3.8,1.8-7.6,2.7-11.3c1.7-7,3.5-14.3,5-21.7c2-9.5,3.8-18.4-1.2-27.5c-5-9-13-12-22.4-15.6l-3.4-1.3h-15.7l-4,1.9
			c-8,3.7-17.6,11.7-18.1,28.8c-0.4,14-0.7,29.1,0.2,44.7c0.2,3.2,0.7,6.2,1.6,8.9c-6.3,0.9-13.2,2.6-19.8,4.8
			c-27.9,9.3-49.1,30.2-60.3,56.4c-3.4-1.3-6.9-2.8-10.5-4.3c-3.9-1.6-7.9-3.3-12-4.9c-5.9-2.3-11.6-4-17.1-5.1
			c-14-2.8-22.6,2.8-26.4,6.3c-3.8,3.6-10,11.7-8.2,25.7C1.5,169.2,3,174.1,4.3,178.3L4.3,178.3z M330.9,337.5
			C330.9,337.5,330.9,337.5,330.9,337.5L330.9,337.5C330.9,337.5,330.9,337.5,330.9,337.5L330.9,337.5z"/>
		<g>
			<path class="st1" d="M379.2,632.9c2.4-0.3,4.9-0.6,7.3-1c5-0.7,9.7-1.4,14.2-1.5l0.1,1c-4.1,0.6-8.3,1.1-12.8,1.6
				c-2.7,0.3-5.6,0.6-8.6,1L379.2,632.9z"/>
			<path class="st1" d="M379.3,633.4c8.1-1,14.9-1.5,21.4-2.5C394.1,631.2,386.8,632.5,379.3,633.4z"/>
			<path class="st1" d="M414.5,637c-1.3-0.8-2.3-2-3.2-2.9l0.7-0.7c0.9,0.8,1.9,1.7,2.8,2.5l0.4,0.4L414.5,637z"/>
			<path class="st1" d="M414.8,636.5c-1-1-2.1-2-3.1-2.9C412.6,634.7,413.6,635.8,414.8,636.5z"/>
			<polygon class="st1" points="305.1,625.7 305.3,625.3 305,625.7 305.3,624.8 305.3,625.3 305.4,624.8 307.3,625.4 307,626.4 			
				"/>
			<path class="st1" d="M307.2,625.9c-0.7-0.2-1.4-0.4-2-0.6C305.8,625.4,306.4,625.7,307.2,625.9L307.2,625.9z"/>
			<path class="st1" d="M361.8,632.1c-5.2-0.5-10.4-1.1-15.4-1.7c-1.6-0.2-3.3-0.4-4.9-0.6l0.1-1c1.7,0.2,3.3,0.4,5,0.6
				c5,0.6,10.2,1.2,15.3,1.7L361.8,632.1z"/>
			<path class="st1" d="M341.5,629.4c6.8,0.8,13.5,1.6,20.3,2.2C355,631,348.3,630.1,341.5,629.4z"/>
			<path class="st1" d="M364.6,718.5c0-7,0.2-14.3,0.4-21.9c0.1-5,0.3-10.3,0.3-15.4l1,0c0,6.9-0.2,13.9-0.4,20.7
				c-0.2,5.5-0.3,11.1-0.4,16.7L364.6,718.5z"/>
			<path class="st1" d="M365.1,718.5c0.1-12.5,0.8-24.9,0.7-37.3C365.6,693.9,365.1,706.8,365.1,718.5z"/>
			<path class="st1" d="M518.3,289.1c-5.8-2-12.6-4.6-18.5-9l0.6-0.8c4.8,3.4,10.8,6.3,18.2,8.8L518.3,289.1z"/>
			<path class="st1" d="M500.1,279.8c5.5,4.1,11.9,6.7,18.4,8.9C512.3,286.6,505.8,283.8,500.1,279.8L500.1,279.8z"/>
			<path class="st1" d="M474.3,728.8c0-8.6-0.4-17.4-0.8-25.9c-0.5-10-1-20.3-0.8-30.6l1,0c0.1,9,0.5,18.1,0.8,26.9
				c0.4,10.6,0.8,20.6,0.8,29.6L474.3,728.8z"/>
			<path class="st1" d="M474.8,728.8c0.1-16.7-1.3-36.9-1.6-56.5C472.8,691.3,474.9,710.1,474.8,728.8z"/>
			<path class="st1" d="M434.2,293.1c0.3-0.9,0.6-1.9,0.9-2.8c0.6-1.8,1.2-3.7,1.9-5.5c0.3-0.7,0.5-1.3,0.9-1.9l0.9,0.4
				c-0.3,0.6-0.6,1.3-0.8,1.9c-0.7,1.8-1.3,3.6-1.9,5.4c-0.3,1-0.6,2-1,2.9L434.2,293.1z"/>
			<path class="st1" d="M434.7,293.2c1.2-3.4,2.1-6.9,3.7-10.2C436.8,286.3,435.9,289.9,434.7,293.2z"/>
			<path class="st1" d="M313.8,281.4c14.2-4.6,29-10.6,47.8-19.3l0.4,0.9l-2,0.9c-14.8,6.8-30,13.9-45.9,18.4L313.8,281.4z"/>
			<path class="st1" d="M314,281.9c16.6-4.7,32.2-12.1,47.9-19.3C346.2,269.8,330.4,276.6,314,281.9z"/>
			<path class="st2" d="M341.9,317.4c-1.1,0-2.2,0-3.3-0.1c-5.7-0.2-8.7-1.2-9.8-3.2c-1-2-0.1-5,3.1-9.6c6.9-10,15.7-18.5,24.2-26.7
				c1.7-1.6,3.3-3.2,5-4.8c1.8-1.7,3.6-3.4,5.4-5.1c1.6-1.4,3.2-2.9,4.7-4.4c0.8-0.8,0.9-1.8,0.3-2.8c-0.4-0.7-1-1-1.7-1
				c-0.3,0-0.6,0.1-1,0.2c-1.7,0.7-3.3,1.5-4.9,2.2c-0.6,0.3-1.3,0.6-1.9,0.9c-18.9,8.7-33.7,14.7-47.9,19.3
				c-54.1,15.3-79.1,17.7-149.8,19.1l-0.9,0l0.5-0.7c0.2-1.1,0.4-2.2,0.6-3.2c0.5-2.2,0.9-4.2,1.3-6.2c0.1-0.4,0.2-0.9,0.3-1.3
				c0.3-1.6,0.6-3.3,2.1-4.6c7.5-35.7,27.7-62.8,60-80.4c22.5-12.3,48.9-18.8,82.9-20.4c9.4-0.5,19-0.5,28.3-0.6
				c6.5-0.1,13.2-0.1,19.7-0.3c6.6-0.2,13.2-0.5,19.7-0.8c9.8-0.5,20-1,29.9-1c1.1,0,2.3,0,3.4,0c35,0.4,76.6,1.1,118.8,2.9
				c31.3,1.3,57.6,8,80.3,20.3c31.6,17.1,51.3,43.3,60.2,80l0.1,0.5l-0.5,0.1c-21.8,5.9-43,8.8-65,8.8c-5.6,0-11.3-0.2-16.9-0.6
				c-2.2,0.1-4.5,0.1-6.7,0.1c-16.3,0-43.2-2-88-19.6l-0.5-0.2l0.3-0.5c0.5-0.9,0.7-1.5,0.8-1.9c-3.4,3-8,7.3-12.9,11.8
				c-5.8,5.3-11.8,10.8-15.7,14.3c-6.8,6-13.1,11.2-21.3,13.6c-1.3,0.4-2.5,0.6-3.6,0.6c-1.7,0-3-0.5-3.9-1.5
				c-1.3-1.3-1.8-3.5-1.7-6.6c0.2-4,1.2-8,3.1-12.4c1.7-3.9,3.4-7.8,5.2-12.3c0.7-1.7,1.4-3.4,2.2-5.2c-5.6,2.3-13,7.3-20.1,12.1
				c-8.3,5.6-16.1,10.9-21.7,12.5l-0.3,0.2C382.7,311.4,362.3,317.4,341.9,317.4z"/>
			<path class="st2" d="M361.8,262.6c2.3-1.1,4.5-2.2,6.9-3.1c1.2-0.5,2.4-0.3,3.2,1c0.7,1.2,0.6,2.5-0.4,3.4
				c-3.3,3.2-6.8,6.2-10.1,9.4c-10.2,10-20.9,19.6-29.1,31.4c-5.9,8.6-4.3,11.8,6.3,12.1c23.7,0.7,45.1-6.7,65.4-18.2
				c0.1-0.1,0.2-0.1,0.3-0.2c10.8-3.2,31.1-20.8,42.9-25.1c-3,7.2-5.4,12.9-7.9,18.6c-1.7,3.9-2.9,8-3.1,12.2
				c-0.3,6.4,2.4,8.6,8.5,6.9c8.3-2.3,14.8-7.8,21.1-13.5c7.5-6.7,22.2-20.3,29.5-26.8c0.3,0.6-0.1,1.8-0.8,3.2
				c30.2,11.8,61.9,20.8,94.6,19.4c27.5,1.9,54.5-0.8,81.7-8.2c-8.7-35.8-28-62.3-60-79.7c-25.1-13.6-52.2-19.1-80.1-20.3
				c-39.6-1.7-79.2-2.4-118.8-2.9c-17.7-0.2-35.3,1.3-53,1.8c-16,0.5-32.1,0.2-48.1,1c-28.8,1.4-56.9,6.3-82.7,20.4
				c-32.3,17.6-52.2,44.3-59.8,80.2c-1.8,1.5-1.8,3.7-2.3,5.7c-0.5,2-0.9,4.1-1.3,6.1c-0.2,1.1-0.5,2.2-0.7,3.3c0,0,0,0,0,0
				c69.3-1.4,94.4-3.4,149.7-19.1C330.4,276.6,346.2,269.8,361.8,262.6L361.8,262.6z"/>
			<path class="st3" d="M419.6,426.1c-5.2,0-10.5-1-15.6-2.9c-0.6,0-1.3,0-1.9,0c-0.8,0-1.5,0-2.3,0c-0.7,0-1.4,0-2,0.1
				c-1.3,0.1-2.6,0.1-3.9,0.1c-14.8,0-23.6-6.7-27.7-21.2c-2.3-8.1-8.6-13.9-19.4-17.8c-9.2-3.3-18.6-4.6-25.8-5.4
				c-10.5-1.1-21.2-1.7-32.8-1.7c-12.4,0-25.5,0.6-40.2,2c-19.9,1.8-35.4,11.3-47.3,29.2c-3.5,5.2-7,8.5-13.8,8.5
				c-0.9,0-1.8-0.1-2.8-0.2c-1.1-0.1-2.2-0.2-3.4-0.2c-4.4,0-8.9,0.8-13.7,1.6c-2.7,0.5-5.4,0.9-8.2,1.3l-0.6,0.1l0-0.6
				c0.1-2.6,0.1-5.2,0.2-7.8l0-2.1c0-2,0-3.9,0.1-5.9l0-1.4c0-5.4,0-10.8,0-16.2c-0.1-25.4-0.2-51.6,3.9-77.2c0.3-2,0.7-4.1,1.1-6.2
				l0.1-0.5l0.5,0.1c14.8,2.9,30.3,4.3,46.2,4.3c41.2,0,85-9.4,134-28.8l0.3-0.1l0.2,0.2c0.4,0.4,0.8,0.9,1.1,1.3
				c0.2,0.3,0.3,0.6,0.4,0.9l0.1,0.2l-0.1,0.2c-1.4,2.3-3,3.9-4.4,5.4c-0.7,0.7-1.4,1.4-2,2.1c-1.3,1.6-2.7,3.2-4.1,4.7
				c-3,3.4-6.2,7-8.8,10.8c-3.5,5.2-4.5,9.7-3,13c1.5,3.4,5.6,5.7,11.8,6.6c3.1,0.5,6.3,0.7,9.5,0.7c3.1,0,6.2-0.2,9.2-0.7
				c27.9-4.1,52.7-15,73.9-32.4c0.4-0.3,1-0.8,1.9-1.5c1.9-1.5,4.9-3.8,7.8-6.2l0.8,0.6c-1.1,2.4-1.9,4.9-2.7,7.3
				c-0.3,1-0.6,1.9-1,2.9l-0.3,0.8c-0.1,0.3-0.2,0.6-0.4,0.9c-0.1,0.4-0.3,0.7-0.4,1.1c0,0-0.2,0.5-0.3,0.7
				c-0.3,0.6-0.6,1.2-0.8,1.7c-3.2,5.8-2.6,11.8,1.4,16c2.2,2.2,4.6,3.3,7.5,3.3c3.3,0,6.7-1.4,9.6-2.8
				c15.6-7.1,25.8-15.7,33.3-27.8c0.4-0.7,1.3-1.9,2.5-3.5c2-2.7,4.8-6.4,6.4-9.2l0.3-0.6l0.5,0.5c1.5,1.5,3.1,2.9,5,4.4
				c0.2,0.2,0.4,0.3,0.6,0.5l0.2,0.1c5.8,4.3,12.5,6.9,18.2,8.8c26,8.8,52.3,13.3,78.1,13.3c22.6,0,45.5-3.5,68-10.3
				c1.3-0.4,2.6-0.7,4.3-1.1c0.9-0.2,1.9-0.5,3.1-0.8l0.5-0.1l0.1,0.5c8.1,30.9,7.9,62.6,7.8,93.3c0,11.7-0.1,23.9,0.3,35.8l0,0.5
				l-1,0c-4.5,0-8.8-0.7-12.9-1.4c-4.1-0.7-8-1.3-11.9-1.3c-2.3,0-4.4,0.2-6.4,0.7c-0.4,0.1-0.8,0.1-1.2,0.1c-2.3,0-3.7-1.6-4.6-2.8
				c-0.5-0.7-1-1.4-1.4-2.2c-13.9-23.4-35.5-34.4-67.9-34.6c-2.9,0-5.9,0-8.8-0.1c-4.5,0-9.2-0.1-13.9-0.1c-11.5,0-25.2,0.3-39,2.2
				c-5.9,0.8-12.1,2.3-19.5,4.7c-9.6,3.1-16.2,9.3-20.2,18.9c-0.3,0.8-0.7,1.7-1.1,2.5c-0.6,1.4-1.3,2.9-1.8,4.4
				c-2.6,7.8-8.4,11.9-17.7,12.4c-3.8,0.2-7.6,0.3-11.3,0.4c-1.7,0.1-3.3,0.1-5,0.2C430.1,425.1,424.8,426.1,419.6,426.1z
				 M302.3,347.3c8.4,0,15.8,0.4,22.5,1.2c0.3,0,0.7,0.1,1.1,0.1c0.4,0,0.8,0,1.2,0c0.4,0,0.8,0,1.2,0l0.4,0c2.7,0,4.7-1.2,5.6-3.2
				c0.9-2.1-0.5-3.7-2.1-5.6l-0.3-0.4c-0.3-0.3-0.6-0.7-0.9-1l-0.4-0.4c-5.7-6.2-13.3-11.1-21.9-14.2c-12.9-0.9-20-1.4-24.7-1.4
				c-5.4,0-7.9,0.6-13.6,2c-1.7,0.7-3.6,1.3-5.4,1.9c-4.1,1.4-8.3,2.8-12,4.9c-0.9,0.5-1.9,1-3,1.5c-4.8,2.3-9.9,4.6-8.1,10.7
				c1.3,4.4,5.2,5.3,10.7,5.3c0.7,0,1.4,0,2,0c0.7,0,1.3,0,1.9,0l1.1,0c7.4,0,15-0.3,22.3-0.6C287.3,347.6,294.9,347.3,302.3,347.3z
				 M544.4,313.6c-0.7,0-1.4,0-2,0c-1.1,0.1-2.1,0.1-3.2,0.1c-2.3,0.1-4.6,0.1-6.8,0.5c-14,2.6-28.3,6.7-38.1,19.4
				c-2.2,2.8-4.3,6.1-1.8,9.9c1.2,1.9,2.9,2.8,5.2,2.8c1.4,0,2.9-0.3,4.4-0.6l0.1,0c17-3.6,34.4-5.3,53.1-5.3c8,0,16.4,0.3,24.9,1
				c0.5,0,1.1,0.1,1.7,0.2c0.9,0.1,1.7,0.2,2.6,0.2c1.7,0,2.8-0.5,3.5-1.6c2.1-3,0.1-6-2-8.6c-1.9-2.3-4.3-4.7-7.2-6.9
				C569.1,317.3,557.9,313.6,544.4,313.6z"/>
			<path class="st3" d="M184.3,416.3c8.1,0.9,12-1.9,16.1-8.1c11.3-17,26.6-27.5,47.6-29.4c24.4-2.2,48.8-2.9,73.1-0.3
				c8.8,0.9,17.4,2.4,25.9,5.4c9.3,3.3,17.1,8.7,19.7,18.1c4.6,16.3,15.3,21.9,31,20.7c2.1-0.2,4.2,0,6.3,0
				c10.4,3.8,20.7,3.8,31.1,0c5.5-0.2,10.9-0.3,16.4-0.6c8.2-0.5,14.5-3.7,17.2-12.1c0.8-2.4,2-4.6,2.9-7
				c3.9-9.5,10.5-15.9,20.5-19.1c6.4-2.1,12.8-3.8,19.6-4.7c20.5-2.9,41.1-2.1,61.8-2c28.9,0.2,52.9,8.8,68.4,34.8
				c0.4,0.7,0.9,1.4,1.4,2.1c1.3,1.8,2.9,3,5.3,2.5c10.6-2.4,20.7,2.2,31.9,2.1c-1.5-43,3-86.3-8.1-128.9c-3.3,0.9-5.4,1.3-7.4,1.9
				c-49.1,14.9-97.9,13.4-146.4-3c-6.5-2.2-12.8-4.8-18.4-8.9c-0.3-0.2-0.5-0.4-0.8-0.6c0,0,0,0,0,0c-1.8-1.3-3.5-2.8-5.1-4.4
				c-2.5,4.4-7.9,10.9-9,12.8c-8.1,13.2-19.3,21.5-33.5,28c-5.7,2.6-12.2,5-17.7-0.6c-4.8-4.9-4.3-11.5-1.5-16.6
				c0.3-0.5,0.6-1.1,0.8-1.7c0.1-0.2,0.2-0.4,0.3-0.7c0.1-0.3,0.3-0.7,0.4-1c0.1-0.3,0.2-0.6,0.3-0.9c0.1-0.3,0.2-0.5,0.3-0.8
				c1.2-3.4,2.1-6.9,3.7-10.2c-4.2,3.5-8.5,6.7-9.6,7.7c-21.6,17.8-46.5,28.4-74.1,32.5c-6.2,0.9-12.7,0.9-18.9,0
				c-13.1-1.9-16.4-9.6-9.1-20.4c3.7-5.5,8.6-10.4,12.9-15.5c1.9-2.2,4.3-3.9,6.3-7.4c-0.1-0.3-0.2-0.5-0.4-0.8
				c-0.3-0.5-0.7-0.9-1-1.3C292,298.6,228,314.8,164,302.3c0,0,0,0,0,0c-0.4,2-0.7,4.1-1,6.2c-4.8,30.8-3.7,61.9-3.8,93.3
				c0,0.5,0,1,0,1.4c0,2,0,3.9-0.1,5.9c0,0.7,0,1.4,0,2.1c0,2.6-0.1,5.2-0.2,7.8C167.9,417.9,176.3,415.4,184.3,416.3L184.3,416.3z
				 M493.9,333.4c9.6-12.5,23.7-16.9,38.4-19.6c3.3-0.6,6.7-0.4,10.1-0.6c13.5-0.4,25.9,2.8,36.7,11.1c2.6,2,5.2,4.4,7.3,7
				c2.1,2.6,4.3,5.8,2,9.2c-1.9,2.8-5.4,1.6-8.2,1.4c-26.2-2-52.1-1.1-77.9,4.3c-3.7,0.8-7.6,1.7-10.2-2.4
				C489.5,339.8,491.7,336.3,493.9,333.4L493.9,333.4z M252.7,330.5c5.5-3,11.7-4.6,17.5-6.8c7-1.7,19.9-1.9,38.5-0.6
				c8,2.9,16,7.7,22.2,14.4c0.4,0.5,0.9,0.9,1.3,1.4c1.7,2,3.6,3.9,2.5,6.5c-1,2.4-3.4,3.6-6.2,3.5c-1.3,0-2.5,0.1-3.8,0
				c-22.7-2.7-45.3,0.1-68,0c-5.8,0-13.4,1-15.3-5.6C239.1,335.4,247.6,333.4,252.7,330.5L252.7,330.5z"/>
			<path class="st3" d="M518.7,688c-4.4,0-7.9-1.5-10.2-4.2c-2.7-3.3-3.5-8.1-2.4-14c3.6-18.7,12.3-34.5,26-46.9
				c0.4-0.4,0.8-0.7,1.3-0.9c0.9-0.6,1.7-1.1,2-2.2c0.1-0.2,0.1-0.5,0.1-0.8l0-0.1c-0.9-0.3-1.8-0.5-2.6-0.5c-3,0-5.4,2.1-7.6,4.4
				c-1.3,1.4-2.7,2.9-4.1,4.5l-0.5-0.2l0.4,0.3c-1.3,1.5-2.6,3.1-3.8,4.6l-0.7,0.9l-0.2-1.1c-0.5-3-1.4-6.2-2.3-9.3
				c-1.1-3.9-2.3-7.9-2.5-11.4c-1.6-19.8,4-36.3,16.5-49c3.5-3.6,7.9-8.1,13.1-8.1c1.7,0,3.4,0.5,5,1.4c7,4,5.1,11.2,3.4,17.5
				c-0.1,0.5-0.3,0.9-0.4,1.4c-1.4,5.5-3.3,11-5.1,16.3l-0.6,1.8c-1.5,4.5-2.2,8.4-2.2,12.2c0.1,9.3,0.6,10.1,9.3,13.3
				c2.7,1,5.6,1.9,8.3,2.7c1.6,0.5,3.2,1,4.9,1.5c9.3,3,18.1,8.4,27,16.4c7.1,6.4,9.2,14.5,6.2,24.7c-2.6,8.9-6.7,12.4-14.7,12.4h0
				c-0.4,0-0.8,0-1.2,0c-2.1-0.1-4.1-0.1-6.1-0.1c-17.3,0-32,3.4-45.1,10.3c-1.1,0.6-2.3,0.8-3.5,1.1c-0.5,0.1-1,0.2-1.5,0.3
				C522.8,687.7,520.6,688,518.7,688z"/>
			<path class="st3" d="M550.4,618.3c-9-3.4-9.5-4.3-9.6-13.8c0-4.3,0.8-8.3,2.2-12.4c2-6,4.1-12,5.7-18.1
				c1.7-6.5,4.4-14.3-2.8-18.4c-7-4-12.8,1.8-17.5,6.6c-13.3,13.5-17.9,30.1-16.4,48.7c0.5,6.2,3.8,14,4.8,20.6c0,0,0,0,0,0
				c1.2-1.6,2.5-3.1,3.9-4.7c0,0,0.1-0.1,0.1-0.1c1.3-1.5,2.7-3,4.1-4.5c2.8-2.9,6.3-5.9,11.1-3.8c-0.1,0.5-0.1,0.9-0.2,1.3
				c-0.4,1.9-2.2,2.3-3.4,3.4c-13.9,12.6-22.4,28.4-25.9,46.7c-2.6,13.4,5.2,20.2,18.3,16.8c1.6-0.4,3.4-0.6,4.9-1.3
				c16.1-8.6,33.3-11,51.4-10.3c9,0.4,12.9-3.3,15.4-12c2.6-9.2,1.5-17.4-6.1-24.2c-7.9-7.1-16.6-13-26.8-16.3
				C559.2,621.1,554.7,619.9,550.4,618.3L550.4,618.3z"/>
			<path class="st4" d="M474.7,736.4c-3-0.1-4-1.9-4.8-3.4c-0.2-0.3-0.3-0.6-0.5-0.9l-5.7-9c-10-15.9-20.4-32.3-30.5-48.5
				c-0.7-1.1-1.4-2.1-1.9-2.9c-3.7-5.5-3.5-5.8,4.5-12.8c1.5-1.3,3-2.5,4.5-3.6c3.4-2.7,6.9-5.5,9.6-8.8c0.5-0.7,1.1-1.3,1.8-2.1
				c0.2-0.2,0.3-0.4,0.5-0.5c0.7-0.7,1.3-1.3,1.8-1.9l0.2-0.2c0.5-0.5,1.1-1,1.8-1.6c0.2-0.2,0.4-0.3,0.6-0.5
				c0.5-0.4,1.1-0.8,1.6-1.2c0.2-0.2,0.5-0.3,0.7-0.5c0.5-0.3,1-0.6,1.5-0.9c0.3-0.2,0.6-0.4,0.9-0.5c0.4-0.2,0.8-0.4,1.3-0.7
				c0.5-0.3,1-0.5,1.6-0.7c0.3-0.1,0.7-0.3,1-0.4c0.4-0.2,0.8-0.3,1.2-0.5c0.2-0.1,0.7-0.2,0.7-0.2c0.9-0.3,1.7-0.6,2.6-0.8l0.4-0.1
				c0.5-0.1,1.1-0.3,1.6-0.4c1-0.2,2.1-0.4,3.3-0.5l0.3,0l0.7-0.1l-0.1,0.7c-1.7,10.3-2.4,22.9-2.1,39.6
				c-0.2,10.2,0.3,20.6,0.8,30.5c0.4,8.5,0.8,17.3,0.8,26c0,0,0,1.2,0,1.5c0,1.9-0.1,3.8-0.1,5.6l0,0.5L474.7,736.4z"/>
			<path class="st4" d="M475.4,632.7c-0.1,0-0.2,0-0.3,0c-1.1,0.1-2.1,0.3-3.2,0.5c0,0-0.1,0-0.1,0c-0.5,0.1-1.1,0.2-1.6,0.4
				c-0.1,0-0.3,0.1-0.4,0.1c-0.9,0.2-1.7,0.5-2.5,0.8c-0.2,0.1-0.5,0.2-0.7,0.2c-0.4,0.1-0.8,0.3-1.2,0.5c-0.3,0.1-0.6,0.3-1,0.4
				c-0.5,0.2-1,0.5-1.6,0.7c-0.4,0.2-0.8,0.4-1.2,0.6c-0.3,0.2-0.6,0.3-0.9,0.5c-0.5,0.3-1,0.6-1.5,0.9c-0.2,0.2-0.5,0.3-0.7,0.5
				c-0.5,0.4-1.1,0.8-1.6,1.2c-0.2,0.2-0.4,0.3-0.6,0.5c-0.6,0.5-1.2,1-1.8,1.5c-0.1,0.1-0.1,0.1-0.2,0.2c-0.6,0.6-1.2,1.2-1.8,1.8
				c-0.2,0.2-0.3,0.3-0.5,0.5c-0.6,0.7-1.2,1.4-1.8,2.1c-3.8,4.9-9.4,8.4-14.1,12.5c-9.3,8-7.7,6.9-2.5,15.1
				c12,19.2,24.1,38.4,36.2,57.6c1,1.6,1.6,3.9,4.9,4c0.1-1.9,0.1-3.7,0.1-5.6c0-0.5,0-1,0-1.5c0.1-18.7-2-37.5-1.6-56.5
				C473,658.3,473.4,644.6,475.4,632.7L475.4,632.7z"/>
			<path class="st5" d="M532.4,860.8c-5.7,0-11.4-0.2-16.7-0.6c-6.5-0.5-13.1-1.2-19.5-1.8l-3.2-0.3c-10.6-1.1-10.8-1.3-11.5-11.5
				c-0.3-4.1-0.5-9-0.4-14c1.4-47.2,2.7-102.2-0.4-156.8c0-0.3,0-0.9-0.1-1.8c-1-20.4-2.3-34.4-3.8-41.6l-0.1-0.6l0.6,0
				c1-0.1,2-0.1,3.1-0.2c0,0,0.8,0,1.1,0c0.7,0,1.3,0,2,0l0.4,0c0.9,0,1.8,0.1,2.7,0.2l0.6,0c1,0.1,2.1,0.2,3.1,0.3
				c3.4-0.8,7.5-1.2,12.3-1.2c4.2,0,8.7,0.3,13.5,1l0.9,0.1l-0.5,0.7c-0.9,1.1-1.7,2.3-2.7,3.7l-0.5,0.8c-1,1.4-1.7,2.6-2.4,3.8
				c-0.7,1.2-1.5,2.5-2.2,4c-0.2,0.3-0.3,0.6-0.5,0.9c-0.8,1.5-1.4,2.8-1.9,4c-0.6,1.3-1.1,2.6-1.7,4.2c-0.1,0.3-0.2,0.7-0.4,1
				c-0.6,1.6-1,3-1.4,4.3c-0.4,1.4-0.7,2.8-1.1,4.5c-0.1,0.4-0.2,0.7-0.2,1.1c-0.3,1.7-0.6,3.2-0.7,4.6c-1,8.1,0.5,14.5,4.2,18.7
				c3.1,3.5,7.8,5.4,13.6,5.4c2.6,0,5.4-0.4,8.4-1.1c3.2-0.8,6.4-2.1,9.5-3.3c1.2-0.5,2.3-1,3.5-1.4c1-0.4,1.8-0.6,2.5-0.6
				c1.8,0,3.1,1.1,4,3.3c1,2.7,2.3,5.3,3.6,7.9c1.8,3.7,3.7,7.6,4.9,11.8c12,41.9,18.5,81.4,19.8,120.8c0.2,5.7,0.6,11.4,1.1,17.4
				c0.2,2.8,0.5,5.7,0.7,8.8l0,0.5l-0.5,0.1C558.6,859.9,545.1,860.8,532.4,860.8z M503.7,785.5c-3.3,0-5.1,0.5-6,1.6
				c-1.7,2-1,6.6,0.4,14c2,11,4.3,13.1,15.1,13.8c2.3,0.2,4.7,0.2,7.6,0.2c2.1,0,4.2,0,6.2-0.1c2.1,0,4.2-0.1,6.3-0.1h0.5v0
				c1.8,0,3.5,0,5.3,0c1.9,0,3.9,0,5.8,0c2.8,0,5.1,0,7.3-0.1c6.8-0.2,8.1-1.5,8.2-8.6c0-1.3-0.1-2.7-0.2-4.1l-0.1-0.9
				c-0.7-8-5-12.3-12.8-12.9c-4-0.3-8.1-0.6-12.1-0.8c-7.6-0.5-15.4-1-23.1-1.7C508.5,785.7,505.8,785.5,503.7,785.5z"/>
			<path class="st5" d="M490.5,632.8c-1.1-0.1-2.2-0.2-3.2-0.3c-0.2,0-0.4,0-0.6,0c-0.9-0.1-1.8-0.1-2.7-0.2c-0.1,0-0.3,0-0.4,0
				c-1,0-1.9,0-2.9,0c-0.1,0-0.1,0-0.2,0c-1,0-2.1,0.1-3.1,0.1h0c2.5,12.2,3.7,40.2,3.8,43.4c3,52.3,2,104.5,0.4,156.8
				c-0.1,4.6,0.1,9.3,0.4,13.9c0.6,9.9,0.7,9.9,11,11c7.5,0.8,15.1,1.6,22.7,2.1c20.2,1.5,40.2,0,60.3-2.4
				c-0.7-9.3-1.5-17.7-1.8-26.1c-1.4-41.1-8.5-81.2-19.8-120.6c-2-7-5.9-13-8.4-19.7c-1.2-3-3.1-3.6-5.9-2.5
				c-4.3,1.7-8.6,3.7-13,4.8c-18.3,4.5-29-4.8-26.8-23.5c0.2-1.6,0.5-3.1,0.7-4.6c0.1-0.4,0.1-0.8,0.2-1.1c0.3-1.5,0.7-3,1.1-4.5
				c0,0,0,0,0-0.1c0.4-1.5,0.9-2.9,1.4-4.3c0.1-0.3,0.2-0.7,0.4-1c0.5-1.4,1.1-2.8,1.7-4.2c0,0,0,0,0-0.1c0.6-1.4,1.3-2.7,1.9-4
				c0.2-0.3,0.3-0.6,0.5-0.9c0.7-1.3,1.4-2.7,2.2-4c0,0,0,0,0,0c0.8-1.3,1.6-2.6,2.5-3.8c0.2-0.3,0.3-0.5,0.5-0.8
				c0.9-1.3,1.8-2.5,2.7-3.8C507.1,631.3,497.6,631.1,490.5,632.8L490.5,632.8z M512.2,785.5c11.7,1,23.5,1.7,35.2,2.5
				c12,0.9,12.2,1.1,13.3,13.3c0.1,1.7,0.4,3.4,0.3,5c-0.2,7.3-1.6,8.9-8.7,9.1c-6.3,0.2-12.6,0-18.9,0v0c-6.7,0-13.5,0.4-20.2-0.1
				c-11.2-0.7-13.6-3.2-15.6-14.2C494.6,784.7,495.4,784,512.2,785.5L512.2,785.5z"/>
			<path class="st4" d="M365,736.3c-0.3-4.9-0.5-10.8-0.5-17.8c0-5.6,0.2-11.2,0.4-16.7c0.2-6.8,0.4-13.8,0.4-20.6
				c0.3-16.1,0.1-34.5-2.8-49.3l-0.1-0.7l0.7,0.1c2.6,0.2,4.7,0.4,6.6,0.5c2.3,0.1,4.9,0.6,7,3c6.4,7,13.8,13.3,21,19.3
				c3,2.5,6,5.1,9,7.7c3.1,2.7,4.4,5.1,1.8,9.1c-2.6,4-5.1,8.1-7.7,12.1c-11.2,17.6-22.7,35.8-34.8,53.6l-0.8,1.2L365,736.3z"/>
			<path class="st4" d="M365.8,681.1c0.1,12.4-0.7,24.9-0.7,37.3c0,6.4,0.1,12.4,0.5,17.8c14.8-21.8,28.6-43.8,42.5-65.7
				c2.4-3.8,1.2-5.9-1.7-8.5c-10.1-8.9-20.9-17-30-27c-1.9-2-4-2.7-6.7-2.8c-2.2-0.1-4.4-0.3-6.6-0.5
				C365.8,645.9,366.1,663.5,365.8,681.1z"/>
			<path class="st5" d="M302.9,860.7c-11.5,0-22.9-0.6-33.9-1.8c-5.4-0.6-6.3-2.9-6.2-7.8c1.4-55.1,12.4-113.3,34.5-183
				c2.2-6.9,9.5-33.8,11.3-41.7l0.1-0.5l1.6,0.5c0.6,0,1.1,0.2,1.6,0.5l0.7,0c1.9,0,3.8,0,6,0.1c0.5,0,0.9,0,1.4,0.1l0.8,0
				c1.6,0.1,3.1,0.2,4.7,0.3c0.7,0,1.4,0.1,2,0.2l0.5,0c1.5,0.1,3,0.3,4.5,0.4c0.8,0.1,1.6,0.2,2.3,0.2c1.7,0.2,3.5,0.4,5.2,0.6
				l1.4,0.2c1.6,0.2,3.3,0.4,4.9,0.6c5,0.6,10.3,1.2,15.4,1.7l0.5,0l0,0.5c-0.8,10.4-1.8,30.4-2.2,38.9l0,0.7
				c-3,60.1-3.7,106.4-2.3,150.3c0.2,5,0,10-0.1,14.9c-0.1,4.2-0.2,8.6-0.1,12.9c0.1,5.2-2.2,7.7-7.8,8.3
				C333.2,859.7,317.9,860.7,302.9,860.7L302.9,860.7z M306.5,815l0,0.7c2.1-0.1,4.3-0.2,6.4-0.2c5.2-0.2,10.5-0.3,15.7-0.9
				c7.8-0.8,10.3-3.1,12.1-11.3c0.6-2.8,1.1-5.7,1.4-8.6c0.5-4.2,0.5-6.6-0.5-7.8c-0.8-0.9-2.2-1.2-5-1.2c-0.7,0-1.4,0-2.2,0.1
				c-8.9,0.4-18,1-26.7,1.6c-6.5,0.4-13.2,0.9-19.8,1.3c-5.6,0.3-8.1,2.7-8.3,7.9c-0.1,1.5-0.2,3-0.4,4.4c-0.2,1.8-0.4,3.8-0.4,5.6
				c0.1,7,1.3,8.2,8.4,8.4c2.2,0.1,4.5,0.1,7.3,0.1c1.9,0,3.9,0,5.8,0c1.9,0,3.9,0,5.8,0H306.5z"/>
			<path class="st5" d="M357.1,849.4c-0.2-9.3,0.5-18.5,0.2-27.8c-1.7-50.2-0.2-100.3,2.3-150.4c0.4-7.7,1.4-28.8,2.3-39.6
				c-6.8-0.6-13.6-1.5-20.3-2.2c-0.5-0.1-0.9-0.1-1.4-0.2c-1.7-0.2-3.5-0.4-5.2-0.6c-0.8-0.1-1.6-0.2-2.3-0.2
				c-1.5-0.1-3-0.3-4.5-0.4c-0.8-0.1-1.7-0.1-2.5-0.2c-1.5-0.1-3.1-0.2-4.7-0.3c-0.7,0-1.5-0.1-2.2-0.1c-2.3-0.1-4.6-0.1-6.9-0.1h0
				h0c0,0,0,0,0,0c-0.5-0.3-1-0.4-1.5-0.5c-0.4-0.1-0.7-0.2-1.1-0.3c-1.9,8.2-9.3,35.2-11.4,41.8c-18.9,59.6-32.9,120-34.5,182.8
				c-0.1,4.6,0.5,6.7,5.7,7.2c27,2.9,53.8,2.1,80.6-1.2C354.7,856.6,357.2,854.8,357.1,849.4L357.1,849.4z M342.7,794.8
				c-0.3,2.9-0.8,5.8-1.4,8.7c-1.8,8.1-4.4,10.8-12.6,11.7c-7.5,0.8-15.1,0.8-22.7,1.1c0-0.3,0-0.5,0-0.8c-6.3,0-12.6,0.1-18.9,0
				c-7.3-0.2-8.8-1.7-8.9-8.9c0-3.3,0.7-6.7,0.8-10c0.2-5.7,3.2-8.1,8.8-8.4c15.5-0.8,31-2.2,46.6-2.8
				C342.9,784.9,343.7,786.2,342.7,794.8L342.7,794.8z"/>
			<path class="st5" d="M268.7,725c-1.6,0-3.7-0.4-7.1-1.1c-5.7-1.1-11.5-2.4-17.1-3.6c-2.5-0.6-5.1-1.1-7.6-1.7l-0.3-0.1l-0.1-0.3
				c-1-3.5,0.7-6.2,2.3-8.6c0.5-0.7,0.9-1.3,1.2-2c14.7-26.6,31.2-51.4,48.8-73.8c0.5-0.7,1-1.3,1.5-1.9l1.6-2
				c0.8-1.1,1.5-2,2.1-2.8c1.2-1.5,2.3-2.7,3.4-3.3c0.3-0.2,0.6-0.3,0.8-0.4c0.3-0.1,0.6-0.2,0.9-0.2c0.2,0,0.4,0,0.5,0
				c0.2,0,0.3,0,0.5,0c0.7,0.1,1.4,0.2,2.2,0.4c0.5,0.1,0.9,0.2,1.3,0.4l0.2,0.1c0.4,0.1,0.9,0.3,1.3,0.4l2.6,0.8l-0.3,0.5
				c-2.4,3.7-4.5,8.4-6.7,14.4c-2.1,5.9-4.2,11.8-6.3,17.5c-6.8,18.7-13.9,38.1-19.3,57.7C273.5,722.3,272.8,725,268.7,725
				L268.7,725z"/>
			<path class="st5" d="M305.2,625.2c-0.5-0.2-0.9-0.3-1.3-0.4c-0.1,0-0.1,0-0.2-0.1c-0.4-0.1-0.8-0.3-1.2-0.4c0,0-0.1,0-0.1,0
				c-0.8-0.2-1.5-0.4-2.1-0.4c0,0,0,0-0.1,0c-0.3,0-0.6,0-0.8,0c0,0,0,0-0.1,0c-0.3,0-0.5,0.1-0.8,0.1c0,0,0,0-0.1,0
				c-0.2,0.1-0.5,0.2-0.7,0.3c0,0,0,0,0,0c-1,0.5-1.9,1.5-3.2,3.1c0,0,0,0,0,0c-0.7,0.8-1.5,1.9-2.4,3.1c-0.4,0.5-0.7,1-1.1,1.5
				c-0.1,0.1-0.1,0.2-0.2,0.2c-0.5,0.6-1,1.2-1.5,1.9c-18.3,23.2-34.4,47.9-48.8,73.7c-1.7,3.1-4.8,5.9-3.5,10.2
				c8.3,1.8,16.5,3.6,24.7,5.3c10.2,2,10.4,2,13.1-7.8c7.1-25.6,16.7-50.3,25.6-75.3c1.3-3.6,3.6-9.6,6.7-14.5
				C306.4,625.7,305.8,625.4,305.2,625.2L305.2,625.2z"/>
			<path class="st6" d="M295.1,537.8c-18.6,0-37.7-3-58.4-9.1c-24-7.1-37.9-23.1-42.5-49c-0.5-2.6-0.8-5.3-1.2-7.9
				c-0.4-2.8-0.8-5.6-1.3-8.4c-1.3-7-3.6-9-10.3-9.2l-0.2,0c-0.8,0-1.5,0.1-2.3,0.2c-0.4,0.1-0.8,0.1-1.2,0.1
				c-1.8,0.2-3.5,0.3-5,0.3c-7,0-11.8-1.8-14.4-5.5c-3-4.2-3-11,0.1-20.1c1.3-3.8,4-4.5,7.1-5c1.1-0.2,2.3-0.4,3.4-0.6
				c5.2-0.9,10.6-1.8,15.9-1.8c1.1,0,2.3,0,3.3,0.1c0.5,0,1,0.1,1.4,0.1c4.7,0,8-1.9,10.7-6.2c13.8-21.8,33.6-32.4,60.6-32.4
				c1.8,0,3.6,0,5.5,0.1c2.1,0.1,4.3,0.2,7,0.2c2,0,4,0,6-0.1c2,0,4-0.1,6-0.1c2,0,3.9,0,5.9,0c12.3,0,26.7,0.2,40.8,2.6
				c17.7,3,27.8,10.6,32.6,24.8c3.8,11.2,11.1,16.7,23,17.2c10.5,0.5,22.8,1,34.9,1c12.2,0,23.1-0.5,33.2-1.6
				c7.4-0.8,12.4-4.1,15.7-10.3c0.2-0.4,0.4-0.7,0.6-1.1c0.4-0.7,0.8-1.4,1.1-2.2c5.3-17.3,17.5-26.2,39.5-28.7
				c12.7-1.5,25.9-2.2,40.4-2.2c11.9,0,24.7,0.5,39.3,1.5c15.3,1.1,28.1,8,38.1,20.6c0.3,0.4,0.6,0.7,0.9,1c0.5,0.6,1.1,1.2,1.5,2
				c5.9,9.7,13.3,14.4,22.6,14.4c1.6,0,3.2-0.1,4.8-0.4c0.2,0,0.5-0.1,0.7-0.1c0.5,0,1,0.1,1.5,0.1l0.4,0.1
				c17.6,2,19.9,4.8,19.1,22.5c-0.3,6.4-3.2,9.6-9.4,10.4c-0.9,0.1-1.8,0.2-2.8,0.2c-1.2,0-2.5-0.1-3.6-0.2c-3.9-0.3-7-0.6-9.4-0.6
				c-8,0-8.4,2.5-10.6,16.4c-0.2,1.4-0.4,2.8-0.5,4.1c-0.2,2-0.4,4-0.8,5.9c-5,24.8-18.6,40.2-41.4,47.1
				c-20.9,6.3-40.3,9.4-59.2,9.4c-4,0-8.1-0.1-12-0.4c-18.7-1.3-32.9-9-43.2-23.5c-9-12.6-15.2-26.1-19.1-41.2c-0.3-1.3-0.6-2.7-1-4
				c-0.4-1.9-0.9-3.9-1.4-5.8c-3.6-12.5-9.8-17.7-22.9-19c-8.2-0.8-16.6-1.2-24.8-1.2c-8.1,0-16.2,0.4-24.3,1.2
				c-14.8,1.4-20.6,6.4-24.1,20.6c-3.5,14.1-8.9,32.3-20.6,48.7c-10.7,15-25.1,23-44.1,24.3C302.9,537.7,299,537.8,295.1,537.8z
				 M546.4,395.4c-6,0-12.7,0.9-19,1.7c-1.5,0.2-2.9,0.4-4.4,0.6c-20.2,2.6-37.8,20.9-40,41.8c-1.1,9.9-0.8,20.2,0.7,31.4
				c2.7,19.6,13,34.3,29.6,42.5c15.5,7.7,31.5,11.5,47.5,11.5c16,0,32.2-3.9,48.3-11.5c6.9-3.3,11.8-9.3,14.5-17.8
				c2-6.2,3.2-12.8,3.6-19.7c0.8-15-1.4-29.9-3.8-43.9c-2.3-13.9-10.6-23.6-24.6-28.9c-13.3-5.1-27.8-7.5-44-7.5c-1,0-1.9,0-2.9,0
				C550.1,395.5,548.3,395.4,546.4,395.4z M284.4,395.6c-16,0-30.2,2.4-43.5,7.4c-14.6,5.4-23.2,15.9-25.4,31.1l-0.5,3.5
				c-0.9,6.2-1.9,12.7-2.4,19.1c-0.8,10.7-1.2,23.4,2.3,36.2c3.1,11.3,9.6,18.6,20.7,23.1c14.2,5.8,28.6,8.7,42.7,8.7
				c13.1,0,26.3-2.5,39.3-7.5c21.7-8.2,34.5-24.1,38.1-47.2c1.6-10.3,1.8-20.8,0.6-31.4c-2.3-20.3-19.7-38.3-39.5-40.9
				c-1.5-0.2-3.1-0.4-4.6-0.6c-6.1-0.8-12.3-1.7-18.2-1.7c-1.8,0-3.5,0.1-5.1,0.2C287.3,395.7,285.8,395.6,284.4,395.6z"/>
			<path class="st6" d="M177.7,454.1c1.3-0.1,2.5-0.4,3.8-0.3c6.9,0.2,9.4,2.4,10.7,9.7c1,5.4,1.6,10.8,2.5,16.2
				c4.3,24.6,17.6,41.3,42.1,48.6c22.8,6.7,46,10.3,69.9,8.7c18.2-1.3,32.9-8.8,43.7-24.1c10.5-14.8,16.2-31.2,20.5-48.5
				c3.6-14.6,9.8-19.5,24.5-20.9c16.4-1.6,32.8-1.6,49.2,0.1c13.3,1.3,19.7,6.6,23.3,19.3c0.9,3.2,1.5,6.6,2.4,9.8
				c3.8,14.8,10,28.4,19,41c10.6,14.9,25.1,22,42.8,23.3c24.3,1.7,47.8-1.9,71.1-9c23.5-7.1,36.3-23.3,41-46.7
				c0.7-3.3,0.8-6.7,1.4-10c1.8-11.8,8.7-17.2,20.5-16.2c2.1,0.2,4.2,0.3,6.3,0c5.7-0.8,8.7-3.6,9-10c0.8-17.4-1.2-20-18.7-22
				c-0.8-0.1-1.7-0.3-2.5-0.1c-12.8,2-21.6-3.7-28-14.2c-0.6-1.1-1.6-1.9-2.4-2.9c-9.7-12.2-22.3-19.4-37.8-20.5
				c-26.5-1.8-53-2.4-79.6,0.7c-18.6,2.1-33.2,9-39.1,28.3c-0.4,1.2-1.2,2.2-1.7,3.4c-3.4,6.5-8.6,9.7-16,10.5
				c-22.7,2.4-45.4,1.6-68.1,0.6c-12.5-0.6-19.8-6.8-23.4-17.5c-5.3-15.7-17.1-21.9-32.2-24.5c-15.5-2.6-31-2.6-46.6-2.6
				c-6.3,0-12.7,0.3-19,0c-27.8-1.4-50.4,7.9-65.7,32c-3,4.8-6.9,6.8-12.6,6.4c-7.6-0.6-15.1,1-22.6,2.3c-3,0.5-5.5,1.2-6.7,4.7
				C152.6,447.8,158.8,456,177.7,454.1L177.7,454.1z M482.4,439.5c2.3-21,19.6-39.6,40.5-42.2c10-1.3,20-3,28.9-2.1
				c17-0.3,32.4,1.9,47.1,7.5c13.6,5.2,22.5,14.7,24.9,29.3c2.4,14.5,4.6,29.1,3.8,44c-0.4,6.8-1.5,13.4-3.6,19.8
				c-2.5,7.8-7.1,14.4-14.8,18.1c-32,15.2-64.5,15.6-96.2,0c-17-8.4-27.2-23.6-29.9-42.9C481.7,460.5,481.3,450,482.4,439.5
				L482.4,439.5z M212.1,456.6c0.6-7.5,1.8-15,2.9-22.5c2.3-15.6,11.1-26,25.7-31.5c15.2-5.6,31-7.8,48-7.3
				c8.9-0.9,18.5,0.9,28.1,2.1c20.2,2.7,37.7,21.2,40,41.3c1.2,10.6,1,21.1-0.6,31.5c-3.5,23.1-16.5,39.2-38.4,47.6
				c-27.6,10.5-55.1,9.9-82.5-1.3c-11-4.5-17.9-12-21-23.4C211.1,481,211.1,468.8,212.1,456.6L212.1,456.6z"/>
			<path class="st3" d="M382.5,625.2c-3.1,0-6.1-0.1-9.1-0.2c-2-0.1-4-0.1-6-0.1c-51.8-0.8-99.2-16.7-134.8-30.4
				c-35.8-13.8-58-39.9-66-77.4c-3.8-17.8-5.9-36.2-6.5-56.4l0-0.5h0.5c2.3,0,4.4,0,6.4,0c1.9,0,3.6,0,5.4,0c2.8,0,5,0,7.1-0.1
				c0.2,0,0.4,0,0.5,0c4,0,6.1,1.9,6.6,6.1c0.2,1.6,0.4,3.1,0.6,4.7c0.6,5,1.3,10.2,2.5,15.2c5.6,23.1,19.1,38.4,40.3,45.6
				c24,8.2,44.3,12,63.8,12c2.6,0,5.2-0.1,7.8-0.2c0.5,0,1.1,0,1.6,0c5.5,0,9.1,1.8,12.7,6.2c9.3,11.4,21.3,20.1,32.9,28.5
				c2.8,2,5.7,4.1,8.5,6.2c10.5,7.8,20.8,16.2,30.7,24.3l4.8,3.9c3.3,2.7,6.8,5.4,8.9,10.3l0.2,0.6l-0.6,0.1
				C395.9,624.7,390.1,625.2,382.5,625.2z"/>
			<path class="st3" d="M401.2,622.9c-2.2-5.1-6-7.9-9.6-10.8c-11.4-9.3-22.8-18.7-34.6-27.4c-14.5-10.8-30-20.5-41.5-34.7
				c-3.9-4.8-7.8-6.3-13.8-5.9c-24.7,1.3-48.5-3.9-71.8-11.8c-22.4-7.6-35.2-23.6-40.7-46c-1.6-6.5-2.2-13.3-3.1-19.9
				c-0.5-4-2.4-5.9-6.6-5.7c-5.8,0.2-11.7,0.1-18.9,0.1c0.6,19.8,2.6,38.2,6.5,56.3c8,37.4,29.8,63.2,65.7,77
				c43.4,16.8,87.6,29.6,134.6,30.4C378.6,624.6,389.9,625.6,401.2,622.9L401.2,622.9z"/>
			<path class="st7" d="M373.6,824.1c-3.4,0-5.4-0.6-6.8-1.9c-1.3-1.3-2-3.5-2-6.8c0-16.8-0.5-33.8-1-50.3l-0.2-5.3
				c-0.1-4.7,1-8.8,3.9-13.2c9.1-14.3,18.2-29,27-43.1c5.8-9.4,11.9-19.1,17.9-28.7c2.7-4.3,4.8-6.9,7.1-6.9c2.3,0,4.3,2.5,6.8,6.4
				c6.6,10.5,13.3,21.2,19.7,31.5c8.4,13.6,17.2,27.6,25.9,41.3c2.6,4,3.7,7.7,3.5,12l-0.2,6.4c-0.5,16.5-1,33.6-1,50.4
				c0,6.7-3,8-8.2,8c0,0-0.4,0-0.6,0c-5.9-0.1-12.3-0.2-20.2-0.2c-4.4,0-8.8,0-13.3,0c-4.3,0-8.5,0-12.8,0v0.1l-0.5,0
				c-4.2,0-8.5,0-12.7,0c-4.2,0-8.5,0-12.7,0c-7.3,0-13.3,0.1-18.8,0.2C374.1,824,373.9,824.1,373.6,824.1z"/>
			<path class="st7" d="M412.9,675c-15,23.9-29.7,48-44.9,71.8c-2.6,4.1-3.9,8.1-3.8,12.9c0.6,18.5,1.2,37.1,1.2,55.6
				c0,7,2.9,8.3,9,8.2c14.7-0.3,29.5-0.1,44.3-0.1c0,0,0,0,0,0c15.6,0,31.2-0.2,46.8,0.1c5.6,0.1,8.3-1,8.3-7.5
				c0-19,0.7-37.9,1.2-56.9c0.1-4.4-1.1-8-3.4-11.7c-15.4-24.2-30.3-48.6-45.6-72.9C420.7,666.1,418.4,666.2,412.9,675L412.9,675z"
				/>
			<path class="st3" d="M460.1,627.5c-8.3,0-16.1-0.5-23.8-1.6l-0.6-0.1l0.1-0.5c1.4-5.3,5.1-8.3,8.4-10.9c0.4-0.3,0.8-0.6,1.2-0.9
				c18.4-15,34.9-28.2,50.4-40.1c1.2-0.9,2.4-1.9,3.6-2.8c8.4-6.4,17-13,23.9-21.1c3.5-4.1,7.2-5.8,12.8-5.8c0.6,0,1.2,0,1.8,0.1
				c2.3,0.1,4.6,0.2,6.9,0.2c18.3,0,35.8-3.7,56.4-9.2c29.3-7.9,45.9-27.1,50.5-58.6c0.4-3,0.7-6.2,0.8-8.8c0.3-4.8,2.5-7,6.8-7
				c0.3,0,0.6,0,0.9,0c2,0.1,4.2,0.2,6.9,0.2c1.7,0,3.5,0,5.4,0c2,0,4.1-0.1,6.3-0.1h0.5l0,0.5c-1.7,25.3-3.7,48.1-10.8,70.3
				c-8.9,27.8-27,47.8-55.5,60.9c-15.1,7-31.3,11.8-47,16.4c-2.6,0.8-5.3,1.6-7.9,2.3c-3.1,0.9-5.3,1.3-7.1,1.3
				c-1.9,0-3.2-0.5-4-1.6c-1.4-1.8-1.4-4.9,0.1-10.6c1.2-4.9,2.8-9.8,4.2-14.5c1-3.2,2-6.4,2.9-9.7c3.4-12,1.7-20.8-4.9-24.8
				c-1.9-1.2-4.2-1.8-6.6-1.8c-6,0-12.7,3.5-18.6,9.5c-14.4,14.9-20,33.5-17.1,56.7c0.1,0.9,0.3,1.8,0.4,2.6
				c0.1,0.8,0.3,1.5,0.4,2.3c0.1,0.4-0.1,0.6-0.4,1.2c-0.2,0.3-0.4,0.8-0.7,1.4l-0.1,0.2l-0.3,0
				C492.9,625.3,476.7,627.5,460.1,627.5z"/>
			<path class="st3" d="M660.2,460.7c-5-0.3-6.9,2-7.2,6.5c-0.2,2.9-0.4,5.9-0.8,8.8c-4.4,30.4-20.1,50.8-50.8,59.1
				c-20.9,5.6-41.7,10.2-63.4,9c-5.9-0.3-10.1,0.8-14.1,5.6c-7.9,9.4-17.9,16.5-27.6,24c-17,13.1-33.8,26.5-50.4,40.1
				c-3.6,2.9-7.9,5.8-9.3,11.6c24.3,3.4,47.5,0.8,70-2.7c0.7-1.6,1.1-2,1-2.3c-0.2-1.7-0.7-3.3-0.9-4.9
				c-2.7-21.6,1.8-41.1,17.3-57.1c8.7-9,19-12,25.8-7.8c6.7,4.1,8.6,13,5.1,25.3c-2.3,8.1-5.1,16.1-7.2,24.2
				c-2.8,11.1-0.4,13.5,10.4,10.2c18.5-5.5,37.3-10.5,54.9-18.7c26.8-12.4,46-31.9,55.2-60.6c7.1-22.3,9.1-45.3,10.7-70.1
				C671.8,460.7,666,461,660.2,460.7L660.2,460.7z"/>
			<path class="st8" d="M340.9,899.2c-0.5-0.2-1.2-0.3-1.8-0.4c-1.3-0.2-2.7-0.4-3.4-1.4c-0.4-0.6-0.6-1.4-0.4-2.5
				c3.1-16.3-7.3-21.6-19-24.8c-0.4-0.1-0.6-0.4-0.9-1c-0.2-0.3-0.5-0.8-0.9-1.4L314,867l8.7-1.3c6.4-1,12.6-1.9,18.8-2.8
				c2.1-0.3,4.3-0.5,6.4-0.8c1.2-0.1,2.4-0.3,3.6-0.4c7.3-0.9,11.4-5.1,12.4-12.5c0.6-4.5,1-9.1,1.4-13.9c0.2-2.3,0.4-4.6,0.6-7
				l0-0.5l0.5,0c19,0.8,36.8,1.1,54.4,1.1c17.7,0,35.1-0.4,51.8-1.2l0.5,0l0,0.5c0.2,2.2,0.4,4.3,0.6,6.5c0.4,4.7,0.8,9.7,1.5,14.5
				c1,7.6,5.2,11.8,12.4,12.5c4.5,0.4,8.9,1.2,13.3,1.9c7.1,1.1,14.4,2.3,21.7,2.3l1.2,0l0,0.5c0.2,4.4-2.5,4.9-4.4,5.2
				c-0.4,0.1-0.8,0.1-1.1,0.2c-11.5,3.2-16.1,10-14.3,20.6c0.4,2.2,0.1,3.8-0.8,4.9c-0.9,1.2-2.5,1.8-5.1,2l-1,0
				c-2.8,0-5.6-0.1-8.5-0.1c-5.7-0.1-11.6-0.1-17.5-0.1c-1.9,0-3.8,0-5.7,0l-0.5,0c-2.8,0-4.9-0.3-6.2-1.7c-1.1-1.1-1.5-2.9-1.4-5.5
				c0.1-2.4-0.5-4.3-1.8-5.6c-2-2.2-5.3-2.7-7.7-2.7c-9.9-0.1-19.6-0.2-28.9-0.2c-9.4,0-18.7,0.1-27.6,0.2c-3.4,0-6,1-7.6,2.8
				c-1.5,1.6-2.2,3.9-2,6.8c0.1,2-0.2,3.4-1.1,4.4c-1.3,1.4-3.4,1.5-5.6,1.5c-8.2,0-16.5,0.1-24.5,0.2L340.9,899.2L340.9,899.2z"/>
			<path class="st8" d="M487.6,862.2c-11.1-1.1-11.3-1.3-12.9-12.9c-0.9-7-1.4-14-2-21c-35.9,1.6-71.2,1.4-106.3,0
				c-0.7,7.6-1,14.3-1.9,20.9c-1.6,11.6-1.8,11.6-12.9,13c-3.3,0.4-6.7,0.7-10,1.2c-8.7,1.2-17.4,2.6-26.7,3.9
				c1,1.5,1.2,2.1,1.5,2.2c12.9,3.6,22.5,9.5,19.4,25.4c-0.7,3.7,3.2,2.9,5.3,3.7c0.3,0,0.6,0,1,0c11-0.1,21.9-0.2,32.9-0.3
				c3.7,0,6.6-0.4,6.3-5.3c-0.4-6.9,4-10,10.1-10.1c18.8-0.2,37.7-0.2,56.5,0c5.5,0.1,10.3,2.5,10,8.8c-0.3,6.1,2.9,6.7,7.7,6.6
				c10.6-0.1,21.1,0.1,31.7,0.2c0.3,0,0.6,0,0.9,0c3.9-0.3,6.2-1.6,5.4-6.3c-2-11.7,3.9-18.1,14.7-21.2c2-0.6,5.4-0.1,5.2-4.9
				C511.3,866.5,499.6,863.4,487.6,862.2L487.6,862.2z"/>
			<path class="st9" d="M416.7,554.5c-10.5,0-21.2-1.7-31.4-3.3c-5.7-0.9-11.7-1.8-17.5-2.5c-9.4-1-18.8-2.6-28.8-4.3
				c-4.8-0.8-9.7-1.6-14.9-2.4l-1.7-0.3l1.6-0.7c20-8.6,35.7-20.8,50.9-32.6c2.9-2.2,5.8-4.5,8.7-6.7c8.9-6.7,18.1-14.3,25.9-23.8
				c3.5-4.3,6.8-6.3,10-6.3c3.1,0,6.2,1.8,9.6,5.5c20.8,22.6,46.7,42.3,84,64l1.2,0.7L513,542c-28.2,4.7-58.2,9.6-88.7,12.1
				C421.9,554.4,419.3,554.5,416.7,554.5L416.7,554.5z"/>
			<path class="st9" d="M367.8,548.2c18.8,2,37.5,7.1,56.5,5.5c29.3-2.5,58.4-7.1,88.6-12.1c-31.6-18.4-60.2-38.2-84.1-64.1
				c-6.7-7.2-12.4-7.2-18.9,0.8c-7.6,9.3-16.6,16.7-26,23.9c-18.3,13.9-35.9,29.1-59.7,39.3C340.5,544,354.1,546.7,367.8,548.2z"/>
			<path class="st9" d="M419.6,636.7c-2.1-5.3-6.6-11.5-13.4-18.5c-15.7-16.1-33.2-30.2-52-41.7c-13.1-8.1-25.6-18.1-39.3-31.5
				l-0.7-0.7l0.9-0.2c1.4-0.3,2.8-0.4,4.1-0.4c5.7,0,9.8,2.8,13.7,5.6l0.6,0.4c24.1,16.7,45.2,28.9,66.5,38.4
				c6.3,2.8,12.6,4.2,18.8,4.2c6.2,0,12.5-1.4,18.7-4.1c21.9-9.6,43.6-22.2,66.5-38.4c4.8-3.4,10.6-6.7,20.1-7.2l0.9-0.1l-0.5,0.8
				c-3,4.9-6.5,7.6-9.9,10.3c-0.8,0.6-1.6,1.3-2.4,1.9c-9.6,7.9-19.8,15.2-29.8,22.2c-11.7,8.3-23.8,16.8-34.8,26.5
				c-2.3,2-4.8,4-7.2,5.9c-7.5,6-15.4,12.2-19.2,21.2c-0.4,0.9-0.9,3-0.8,5.3L419.6,636.7z"/>
			<path class="st9" d="M315.2,544.6c12.7,12.4,25.2,22.8,39.2,31.4c19.1,11.7,36.5,25.7,52.1,41.8c4.3,4.4,10.8,11.6,13.6,18.6
				c-0.1-2.3,0.5-4.6,0.9-5.5c5.1-12.1,17-18.9,26.5-27.3c20.3-17.8,43.8-31.5,64.5-48.7c4-3.3,8.5-6.1,12.2-12
				c-8.5,0.5-14.2,3.1-19.9,7.1c-21,14.9-43,28-66.6,38.5c-12.7,5.6-25.2,5.6-37.9-0.1c-23.6-10.5-45.5-23.8-66.6-38.4
				C328.1,546.5,323.4,542.9,315.2,544.6L315.2,544.6z"/>
			<path class="st3" d="M419.5,664.3c-1.6,0-3.1-0.7-4.8-2.3c-11.1-10.1-23.2-19.1-35.7-28.2l-1-0.7l1.3-0.2c3-0.4,5.9-0.7,8.6-1
				c4.5-0.5,8.7-0.9,12.8-1.6c0.8,0,1.6-0.1,2.3-0.1c1.2,0,2.2,0,3.2,0.1c1.9,0.2,3.7,1,5.9,2.8c0.9,1,1.9,2.1,3.1,2.8
				c2,1.9,4,3.6,6.1,4.1c5.3-5.4,11.1-10.3,18.2-10.3c1.6,0,3.3,0.3,5,0.8c2.8,0.9,5.8,1.2,9.2,1.6c1.7,0.2,3.5,0.4,5.4,0.7l1.1,0.2
				c0,0-7.6,6.2-10.9,8.8c-8.6,7-16.8,13.6-24.9,20.3C422.5,663.6,421,664.3,419.5,664.3L419.5,664.3z"/>
			<path class="st3" d="M421.3,640.8c-2.4-0.5-4.5-2.3-6.6-4.3c-1.2-0.8-2.2-1.8-3.1-2.9c-1.7-1.4-3.5-2.5-5.6-2.7
				c-1.7-0.1-3.5-0.1-5.4-0.1c-6.5,1-13.3,1.5-21.4,2.5c13.2,9.7,24.9,18.4,35.7,28.2c3.1,2.8,5.7,2.8,8.8,0.2
				c11.3-9.2,22.6-18.4,35-28.4c-5.8-0.9-10.4-1-14.6-2.3C435.6,628.5,428.9,633.1,421.3,640.8L421.3,640.8z"/>
			<path class="st3" d="M360.1,512.9c-1.1-3.2,0.2-5.2,1.4-7c0.3-0.5,0.6-0.9,0.8-1.4c5.7-11.3,10-24.1,13.2-39.2
				c2.1-10.2,7.8-15.3,18.4-16.6c8.3-1,16.7-1.5,25-1.5c9.6,0,19.5,0.7,29.2,2c7.9,1.1,13,5.5,14.7,12.7c4.6,20.1,10,35.8,16.9,49.7
				l-0.7,0.6l-2.7-1.9c-13.8-10-28-20.4-39.8-33.2c-0.6-0.7-1.3-1.4-1.9-2.2c-1.3-1.5-2.6-3-4-4.3c-3.4-3-7.2-4.5-11-4.5
				c-4.7,0-9.1,2.3-12.7,6.5c-9.6,11.2-20.7,20.1-32.4,29.5c-4.4,3.5-9,7.2-13.5,11l-0.6,0.5L360.1,512.9z"/>
			<path class="st3" d="M406.4,472.3c7.1-8.4,16.9-8.7,24.4-2c2.2,1.9,4,4.3,6,6.5c12.5,13.6,27.4,24.1,42.4,35
				c-7.9-16-13-32.7-16.9-49.8c-1.7-7.2-6.7-11.3-14.3-12.3c-18-2.4-36-2.6-54.1-0.5c-10.2,1.2-15.9,6.1-18,16.2
				c-2.8,13.6-6.9,26.8-13.2,39.3c-1.1,2.2-3.5,4.2-2.2,8C376.5,499.3,393.2,487.8,406.4,472.3L406.4,472.3z"/>
			<path class="st6" d="M418.9,586.5c-2.7,0-5.5-0.5-8.3-1.5c-23.6-8.3-44.8-21-62.5-32.3l0.3-0.9c8.8,0.8,17.6,1.9,26.1,3
				c14.4,1.9,29.3,3.8,44.1,3.9l0.8,0c15.1,0,30.2-2,44.8-4c8.1-1.1,16.5-2.2,24.9-3l0.3,0.9c-19.4,12.2-40.3,24.8-63.6,32.6
				C423.6,586.2,421.3,586.5,418.9,586.5z"/>
			<path class="st6" d="M348.4,552.4c19.9,12.7,40.1,24.4,62.4,32.2c4.8,1.7,10,2,14.9,0.3c22.8-7.7,43.2-19.8,63.5-32.6
				c-23.7,2.2-46.7,7.1-70.5,6.9C395,559.2,372,554.4,348.4,552.4L348.4,552.4z"/>
			<path class="st5" d="M257.1,767.4c-0.9,0-2,0-3.2-0.1l-0.2,0c-7.6-0.2-17.6-0.8-27.5-4c-3.6-1.2-5.7-2.7-6.7-4.8
				c-0.9-1.9-0.7-4.2,0.5-7.1c1.3-3.1,2.6-6.2,4-9.3c2.4-5.7,4.9-11.6,7.3-17.4c1.2-2.9,2.8-4.4,5-4.4c1.1,0,2.2,0.3,3.5,1
				c6.2,3.2,12.7,5,19.7,6.9c3.5,1,7.1,2,10.8,3.2l0.4,0.1l-1.8,8.8c-1.2,6.1-2.4,11.8-3.6,17.5C263.6,766,263.3,767.4,257.1,767.4
				L257.1,767.4z M245.5,753.8c2.9,1.9,4.9,2.8,6.6,2.8c1.9,0,3.4-1.1,5.2-3.7c3.3-4.9,2.5-10.5-2-13.7c-1.5-1-3.1-1.6-4.9-1.6
				c-2.9,0-5.7,1.5-7.7,4.1c-3.4,4.2-2.8,7,2.6,12L245.5,753.8z"/>
			<path class="st5" d="M270.1,731.9c-10.7-3.5-21.2-5.2-30.6-10.1c-3.8-2-6.2-0.9-7.8,3.1c-3.6,9-7.5,17.8-11.2,26.7
				c-2.6,6.1,0,9.3,5.9,11.2c8.9,2.9,18.1,3.8,27.3,4c9.2,0.2,9.2,0.3,11.1-9.1C266.5,749.6,268.2,741.3,270.1,731.9L270.1,731.9z
				 M257.6,753.2c-3.3,4.8-6.3,5.1-12.5,1c0,0,0,0-0.1,0.1c-5.8-5.4-6.5-8.4-2.9-12.9c3.5-4.5,9.1-5.5,13.3-2.6
				C260.2,742.1,261.1,748.1,257.6,753.2L257.6,753.2z"/>
			<path class="st5" d="M581.6,713.1c-1.8,0-3.7-0.8-5.9-2.4c-1.9-1.4-4-2.8-5.9-4.2c-0.8-0.5-1.6-1.1-2.3-1.6
				c-9.1-6.2-10.2-11.6-4.4-21.2c1.4-2.4,3.2-2.8,5.5-2.8l0.1,0c1.9,0,3.8,0,5.7,0c1.5,0,5.1,0,5.1,0c15,0,19.7-3.6,24.3-18.4
				c0.2-0.5,0.2-1.1,0.3-1.7c0.2-1.4,0.4-3,1.9-4.3l0.3-0.2l0.3,0.2c3.5,1.9,7.8,5.1,4.8,11.8c-6.3,13.9-14.1,27.5-23.3,40.5
				C586.1,711.7,584,713.1,581.6,713.1z"/>
			<path class="st5" d="M578.8,681.5c-3.4,0-6.7-0.1-10.1-0.1c-2.1,0-3.8,0.4-5.1,2.6c-5.6,9.3-4.7,14.3,4.2,20.5
				c2.8,1.9,5.6,3.7,8.3,5.8c4.5,3.4,8.2,3.2,11.6-1.7c9-12.8,16.7-26.2,23.2-40.5c2.5-5.5,0-8.7-4.5-11.1c-2.1,1.7-1.5,3.9-2.1,5.8
				C599.6,677.9,594.5,681.7,578.8,681.5L578.8,681.5z"/>
			<path class="st5" d="M604.9,719.7c-3.4,0-7.4-0.9-13.6-3l-0.7-0.2l0.4-0.6c7-9.1,12.4-18.8,17.7-28.2c2.6-4.7,5.3-9.6,8.2-14.3
				c0.2-0.3,0.6-0.5,0.9-0.6c0.1,0,0.2-0.1,0.3-0.1l0.4-0.2l0.2,0.4c10.4,15.7,10.4,25.3,0.2,38.3
				C614.9,716.5,611.1,719.7,604.9,719.7L604.9,719.7z"/>
			<path class="st5" d="M618.6,710.9c10.1-12.8,10-22.3-0.2-37.8c-0.4,0.2-0.9,0.3-1,0.6c-8.5,13.9-15.2,28.8-25.9,42.6
				C606.4,721.3,611.3,720.1,618.6,710.9z"/>
			<path class="st5" d="M352.1,914.1c-12.6,0-24.3-1.4-35.7-4.3l-0.7-0.2l0.4-0.6c0.9-1.4,2-2.6,3.3-3.5l0.1-0.1
				c2.5-1.7,5.2-2.1,7.8-2.5c1.8-0.3,3.4-0.5,4.9-1.1c0.6-0.3,1.2-0.6,1.6-0.9l0.1-0.1l7.2-0.5l0.6,0c1.2,0,2.5,0,3.7,0
				c12.8,0,26.1,1,39.6,2.9c0.7,0.1,1.4,0.2,2.1,0.3c4.3,0.6,8.8,1.1,14.3,4.1l1.2,0.7l-1.4,0.3
				C386.9,911.3,369.7,914.1,352.1,914.1C352.1,914.1,352.1,914.1,352.1,914.1z"/>
			<path class="st9" d="M341.7,900.8c-0.2,0-0.4,0-0.6,0c-2.3,0.2-4.7,0.4-7,0.5c-0.5,0.4-1.1,0.7-1.7,1c-3.8,1.6-8.6,0.8-12.6,3.5
				c0,0-0.1,0-0.1,0.1c-1.1,0.8-2.2,1.9-3.1,3.3c28.5,7.3,55.7,4.3,84.7-1.2c-6.2-3.4-11.3-3.6-16.2-4.3
				C370.6,901.6,356.2,900.6,341.7,900.8L341.7,900.8z"/>
			<path class="st5" d="M485.3,914.1c-16,0-33-2.2-46.5-6l-1.2-0.3l1-0.6c4.6-2.6,9.1-3.2,13.3-3.8l0.9-0.1c15.4-2.1,28.1-3,39.9-3
				c1.6,0,3.1,0,4.7,0.1l0.6,0l7.2,0.5l0.1,0.1c0.5,0.3,1,0.6,1.6,0.9c1.7,0.7,3.5,0.9,5.5,1.1c3.3,0.4,6.7,0.8,9.2,3.7l0.4,0.4
				l-0.4,0.3C515.8,911.6,502.5,914.1,485.3,914.1L485.3,914.1z"/>
			<path class="st9" d="M505.2,901.3c-2.3-0.2-4.7-0.4-7-0.5c-0.2,0-0.4,0-0.6,0c-14.9-0.3-29.7,1-44.5,3c-4.7,0.6-9.2,1.1-14.1,3.8
				c29.3,8.3,70.6,7.8,82.5-0.6c-3.8-4.5-9.8-2.8-14.5-4.7C506.3,902,505.7,901.7,505.2,901.3L505.2,901.3z"/>
			<path class="st3" d="M256.7,803c-13.3-4.9-22.8-14.3-30.5-30.4l-0.4-0.7l0.8,0c4.6,0.1,9,0.6,13.3,1.1c4.8,0.5,9.3,1,14.1,1
				c2.5,0,4.8-0.1,7.1-0.4l0.6-0.1l-0.1,0.6c-0.4,3.3-0.7,6.4-0.9,9.4c-0.5,6.7-1,13-3.4,19.2l-0.2,0.5L256.7,803z"/>
			<path class="st3" d="M226.7,772.3c7,14.4,15.8,24.8,30.2,30.2c3.4-8.8,2.9-17.6,4.3-28.5C249.3,775.6,238.6,772.6,226.7,772.3
				L226.7,772.3z"/>
			<path class="st5" d="M553.5,691.8c-1.1,0-2-0.5-2.8-1.4c-1-1.2-1.5-3-1.2-4.4c0.6-3.2,2.8-3.6,5.2-3.6c0.6,0,1.2,0,1.8,0.1
				c0.7,0,1.4,0.1,2.1,0.1l0.9,0l-0.2,0.6c-0.2,0.7-0.4,1.4-0.5,2c-0.8,3.2-1.5,6.2-4.9,6.6C553.8,691.8,553.7,691.8,553.5,691.8z"
				/>
			<path class="st5" d="M550.1,686c-0.4,2.1,1,5.5,3.8,5.2c3.7-0.4,3.9-4.3,5-8.3C554.7,683,550.9,681.9,550.1,686z"/>
			<path class="st2" d="M496.4,341.9c8.2-13.7,25.3-22.2,44.6-22.2c16.2,0,31.1,6,40.9,16.4l1,1l-1.4-0.2
				c-6.6-0.9-13.2-1.3-20.3-1.3c-17.4,0-34.2,2.5-51.9,5.2c-4.1,0.6-8.2,1.2-12.3,1.8l-1,0.1L496.4,341.9z"/>
			<path class="st2" d="M581.5,336.3c-22.5-23.8-68.6-21-84.7,5.8C525.6,338,552.4,332.5,581.5,336.3z"/>
			<path class="st2" d="M329.1,344.4c-12.6-2.4-25.1-2.7-34.7-2.7c-4.7,0-9.5,0.1-14.1,0.2c-4.6,0.1-9.4,0.2-14.1,0.2h0
				c-6.7,0-12.3-0.2-17.5-0.5l-1.4-0.1l1.1-0.8c11.4-8.4,26.8-13.2,42.2-13.2c17.4,0,32,6.1,39,16.3l0.7,1L329.1,344.4z"/>
			<path class="st2" d="M329.2,343.9c-13.8-20-54.9-21.7-80.5-2.9C275.4,342.9,302.2,338.8,329.2,343.9z"/>
			<path class="st5" d="M536.6,812.5c-4.7,0-9.3-0.2-13.6-0.5c-20.5-1.4-20.7-1.7-23-25.3l-0.1-0.7l0.7,0.1
				c18.2,3.7,33.5,6.1,49.2,6.3c5.6,0.1,5.8,4.2,5.9,7.5c0,0.4,0,0.7,0.1,1.1c0,0.6,0.1,1.2,0.2,1.8c0.4,3,0.9,6.8-4.1,8
				c-3.2,0.8-6.6,1.5-10,1.6C540.1,812.5,538.4,812.5,536.6,812.5L536.6,812.5z"/>
			<path class="st5" d="M523,811.5c6.3,0.4,12.6,0.5,18.9,0.4c3.3-0.1,6.6-0.8,9.9-1.6c5.4-1.3,3.7-5.8,3.5-9.3
				c-0.2-3.6,0.2-8-5.5-8.1c-16.3-0.2-32.3-2.9-49.3-6.3C502.8,810,502.8,810.1,523,811.5L523,811.5z"/>
			<path class="st5" d="M302.4,812.6c-4.5,0-8.5-0.3-12.2-0.9c-7-1.1-7.5-5.6-6.9-10.4c0.5-4.7,1.1-9.1,8.2-9.1l0.6,0
				c16.7,0,32.7-3.1,46.2-6.2l0.6-0.1l0,0.7c-1.4,23.3-2,24-22.3,25.4C312.5,812.3,307.3,812.6,302.4,812.6z"/>
			<path class="st5" d="M283.8,801.4c-0.6,5.3,0.4,8.9,6.5,9.8c8.8,1.4,17.6,0.8,26.3,0.2c20-1.4,20.4-2,21.8-25
				c-16.1,3.7-31.4,6.3-46.8,6.2C284.9,792.7,284.3,796.5,283.8,801.4L283.8,801.4z"/>
			<path class="st5" d="M272.1,519.2c-12,0-24.2-4.4-35.6-8.9c-8.8-3.4-14.5-10-17.1-19.5c-2.3-8.3-3.3-16.1-3.2-23.8
				c0.1-9.8,1.6-19.6,3.1-29.1c0.2-1.6,0.5-3.2,0.7-4.8c1.7-11.7,8.5-20.4,19.5-25.3c12.4-5.4,22.9-8,33.2-8c2.9,0,5.9,0.2,8.8,0.6
				c6.5,0.9,13.2,1.1,19.7,1.3c3,0.1,6.1,0.2,9.2,0.3c20.4,1.1,36,14.7,39.8,34.7c2.5,13.2,1.9,26.8-1.8,40.3
				c-4,14.7-13.7,26.1-27.2,32.1c-15.3,6.8-29.2,9.9-43.8,9.9c-1,0-2.1,0-3.1,0C273.6,519.2,272.8,519.2,272.1,519.2z M301.1,425.5
				c-21.1,0-38.6,17.8-39,39.6c-0.2,11,3.8,21.4,11.3,29.1c7.2,7.4,16.8,11.6,27,11.8l0.6,0c21.3,0,38.9-17.7,39.2-39.5
				c0.4-22.2-16.9-40.6-38.4-41C301.6,425.5,301.4,425.5,301.1,425.5z"/>
			<path class="st5" d="M236.6,509.9c12.6,4.9,25.3,9.4,37.7,8.8c17.3,0.5,32.4-3.5,46.7-9.8c13.7-6.1,23-17.4,26.9-31.8
				c3.6-13,4.3-26.5,1.7-40.1c-3.7-19.6-19.3-33.2-39.4-34.3c-9.7-0.5-19.4-0.3-29-1.7c-14.9-2.2-28.4,1.5-41.7,7.3
				c-10.8,4.7-17.5,13.2-19.2,24.9c-1.7,11.2-3.7,22.4-3.8,33.9c-0.1,8.1,1.1,16,3.2,23.7C222.3,499.8,227.7,506.4,236.6,509.9
				L236.6,509.9z M301.9,425c21.8,0.4,39.3,19.1,38.9,41.5c-0.4,22.5-18.3,40.3-40.3,40c-21.9-0.3-39.3-18.8-38.9-41.4
				C262,442.5,280,424.6,301.9,425L301.9,425z"/>
			<path class="st5" d="M561.9,519.5c-15.1,0-30.5-3.8-45.9-11.3c-14.5-7.1-23.7-19.9-26.5-37c-1.7-10-2.1-19.1-1.4-27.8
				c1.9-24.7,18.1-40.1,43.2-41.3c2.2-0.1,4.5-0.2,6.7-0.3c8.1-0.4,16.5-0.7,24.7-1.6c2-0.2,3.9-0.3,5.9-0.3
				c11.3,0,22.9,3.4,35.5,10.4c8.4,4.7,13.7,12.5,15.2,22.7c0.3,2.3,0.7,4.5,1.1,6.8c1.4,8.6,2.7,16.6,2.7,23.4
				c0.9,34-7.3,45.5-37.9,53.5C577.5,518.5,569.7,519.5,561.9,519.5L561.9,519.5z M538.1,425.5c-21.4,0-38.9,17.9-39.1,39.9
				c-0.1,10.7,3.9,20.9,11.2,28.5c7.3,7.7,17.1,11.9,27.5,12l0.4,0c21.7,0,38.9-17.5,39.1-39.8c0.1-10.8-3.9-20.9-11.2-28.6
				c-7.3-7.7-17.1-12-27.5-12.1L538.1,425.5z"/>
			<path class="st5" d="M516.2,507.7c21.5,10.5,44.7,14.6,68.7,8.3c30-7.9,38.4-19.1,37.5-53c0-8.4-2.1-19.2-3.7-30
				c-1.5-9.6-6.2-17.5-15-22.3c-12.7-7.1-26.4-11.6-41.1-10c-10.5,1.1-21,1.4-31.5,1.9c-24.7,1.2-40.8,16.4-42.7,40.9
				c-0.7,9.2-0.1,18.5,1.4,27.7C492.7,487.7,501.8,500.7,516.2,507.7L516.2,507.7z M538.4,425c21.9,0.2,39.4,18.6,39.2,41.2
				c-0.2,22.7-17.9,40.5-39.9,40.3c-21.9-0.2-39.5-18.6-39.2-41.1C498.7,443,516.7,424.8,538.4,425L538.4,425z"/>
			<path class="st5" d="M247.4,754.7c-0.7,0-1.5-0.1-2.1-0.1l-0.7-0.1l0-0.7c0-0.6,0-1.1-0.1-1.7c-0.1-1.7-0.2-3.5,0.1-5.2
				c0.4-2.7,2.5-4.5,5.6-4.8c0.1,0,0.3,0,0.4,0c1.6,0,3.1,1.1,3.9,2.8c1.4,2.9,0,5.3-1.5,7.3C251.3,754.4,249.1,754.7,247.4,754.7
				L247.4,754.7z"/>
			<path class="st5" d="M252.6,751.8c1.6-2.1,2.6-4.2,1.4-6.7c-0.7-1.6-2.1-2.7-3.8-2.5c-2.6,0.3-4.7,1.8-5.1,4.4
				c-0.3,2.2-0.1,4.5,0,6.8c0,0.1,0,0.2,0,0.3c0.1,0,0.1,0,0.2,0C248.1,754.3,250.7,754.4,252.6,751.8L252.6,751.8z"/>
			<path class="st5" d="M245.1,754c-0.1,0-0.2,0-0.3,0c0,0,0,0,0,0c0,0,0.3,0.3,0.3,0.3c0,0,0-0.1,0-0.1
				C245.1,754.1,245.1,754.1,245.1,754z"/>
			<path class="st5" d="M245.1,754c-0.1,0-0.2,0-0.3,0c0,0,0,0,0,0c0,0,0.3,0.3,0.3,0.3c0,0,0-0.1,0-0.1
				C245.1,754.1,245.1,754.1,245.1,754z"/>
			<path class="st6" d="M497.7,347.3c-2.7,0-4.6-1.1-6.1-3.3c-2.6-4.1-0.7-7.7,1.9-11c10-13,24.5-17.2,38.7-19.8
				c2.3-0.4,4.7-0.5,7-0.5c1.1,0,2.1,0,3.2-0.1c0.7,0,1.4,0,2.1,0c13.7,0,25.2,3.7,35,11.3c2.9,2.3,5.4,4.6,7.3,7
				c1.7,2,4.7,5.9,2.1,9.8c-1.3,1.9-3.1,2.1-4.4,2.1c-0.9,0-1.8-0.1-2.7-0.2c-0.5-0.1-1.1-0.1-1.6-0.2c-8.5-0.7-16.8-1-24.9-1
				c-18.7,0-36,1.7-52.9,5.3l-0.1,0C500.8,347,499.2,347.3,497.7,347.3L497.7,347.3z M541,320.6c-18.5,0-34.9,8-43.2,20.9
				c3.8-0.5,7.5-1.1,11.3-1.7c17.8-2.7,34.5-5.2,52-5.2c6.6,0,12.9,0.4,19.1,1.1C570.5,326.1,556.3,320.6,541,320.6z"/>
			<path class="st6" d="M502.3,346.2c25.7-5.4,51.7-6.4,77.9-4.3c2.8,0.2,6.3,1.4,8.2-1.4c2.3-3.4,0.1-6.6-2-9.2
				c-2.1-2.6-4.6-4.9-7.3-7c-10.8-8.4-23.2-11.5-36.7-11.1c-3.4,0.2-6.8,0-10.1,0.6c-14.7,2.7-28.8,7-38.4,19.6
				c-2.2,2.9-4.4,6.4-1.9,10.4C494.7,347.8,498.6,347,502.3,346.2L502.3,346.2z M581.5,336.3c-29.1-3.8-55.9,1.6-84.7,5.8
				C512.9,315.4,559,312.5,581.5,336.3z"/>
			<path class="st6" d="M325.9,349.5c-0.5,0-0.8,0-1.2-0.1c-6.7-0.8-14-1.2-22.4-1.2c-7.4,0-15,0.3-22.3,0.6
				c-7.3,0.3-14.9,0.6-22.3,0.6l-1.1,0c-0.6,0-1.3,0-1.9,0c-0.7,0-1.4,0-2.1,0c-5.2,0-10.1-0.7-11.7-6c-2-6.9,3.9-9.7,8.6-11.9
				c1-0.5,2-0.9,2.9-1.4c3.8-2.1,8.1-3.6,12.2-5c1.8-0.6,3.6-1.2,5.4-1.9c5.7-1.4,8.3-2,13.9-2c4.8,0,11.9,0.5,24.9,1.4l0.1,0l0.1,0
				c6.7,2.4,16.2,7.1,23.7,16l0.3,0.4c1.7,1.9,3.4,4,2.3,6.7c-1,2.4-3.4,3.8-6.5,3.8l-0.4,0c-0.4,0-0.8,0-1.2,0
				C326.7,349.5,326.3,349.5,325.9,349.5z M294.4,340.7c9.3,0,21.4,0.3,33.6,2.5c-7.1-9.3-21-14.8-37.4-14.8
				c-14.7,0-29.3,4.4-40.5,12.2c4.8,0.3,9.9,0.4,16.1,0.4c4.7,0,9.5-0.1,14.1-0.2C284.9,340.8,289.7,340.7,294.4,340.7z"/>
			<path class="st6" d="M308.8,323.1c-18.7-1.3-31.5-1.1-38.5,0.6c-5.9,2.2-12.1,3.8-17.5,6.8c-5.1,2.8-13.6,4.9-11.3,12.8
				c1.9,6.6,9.5,5.6,15.3,5.6c22.7,0.1,45.3-2.7,68,0c1.2,0.1,2.5,0,3.8,0c2.8,0.1,5.2-1.1,6.2-3.5c1.1-2.6-0.8-4.5-2.5-6.5
				C325.9,331.4,317.4,326.2,308.8,323.1L308.8,323.1z M248.7,341c25.5-18.8,66.7-17.1,80.5,2.9C302.2,338.8,275.4,342.9,248.7,341
				L248.7,341z"/>
			<path class="st6" d="M356.5,919.9c-10.5,0-20-0.9-29-2.8c-4.4-0.9-8-2.1-10.8-3.7c-2.9-1.6-4.5-3.9-4.4-6.2c0.1-2.4,1.9-4.6,5-6
				c2.9-1.3,6.1-2,9.3-2.7c1.2-0.3,2.5-0.6,3.8-0.9c0-0.5,0-1-0.1-1.6c-0.1-1.5-0.2-3,0-4.4c0.8-6.9-1.8-11-9-13.7l-0.9-0.3
				c-13.3-4.9-25.8-9.6-39.8-12.1c-2.6-0.5-4.9-0.8-6.9-1.2c-15-2.5-15.1-2.7-16-17.9c-0.1-1.8-0.2-3.7-0.4-5.9
				c-0.6-8.1-0.4-16.3-0.2-24.1c0.1-4.3-0.7-6.8-5.6-8.9c-14.4-6.3-23.7-17.3-27.1-31.9c-0.9-4.1-2.7-6.5-6.1-8.3
				c-6.1-3.2-7.6-8-5.1-15.6c4.3-12.7,9.9-25.6,16.7-38.3c18.4-34.4,38.9-64,62.6-90.4c-8.1-3.8-16.5-6.4-24.7-8.8
				c-3.5-1.1-7.1-2.1-10.6-3.3c-19.5-6.5-38.5-15.8-56.7-27.8c-18-11.9-30-28-35.7-47.9c-5.3-18.6-10.8-43.3-6.3-68.8
				c0.1-0.3,0.1-0.7,0.2-1c0.4-2.2,0.8-4.3-0.8-5.8c-10.4-9.4-7.7-20.5-5.1-31.3c0.3-1.1,0.5-2.2,0.8-3.3c1.2-5.1,1.6-9.6,1.4-14.5
				c-0.2-4.4-0.3-8.8-0.5-13.2c-1.5-36.6-3.1-74.5,6-111.5c7.1-28.8,20.5-52.2,39.8-69.6c18.3-16.5,42.6-28.2,72.1-34.6
				c15.1-3.3,31.6-5,49.1-5c17.6,0,35.6-0.1,52.9-0.2c21.4-0.1,43.6-0.3,65.3-0.3c34.5,0,62.9,0.3,89.2,1
				c29.4,0.8,54.7,6.4,77.3,17.3c40.7,19.6,65.1,52.1,74.8,99.5c3.7,18.1,5.4,36.3,5.2,54.1c-0.1,5.3-0.1,10.7-0.1,15.9
				c0,16.8-0.1,34.1-2.2,51.1c-0.3,2.7,0.1,5.1,1.6,8.2c3.2,6.8,3,14.1,2.8,21.1c0,1.3-0.1,2.7-0.1,4c0,1.9-0.3,4.3-1.5,5.1
				c-6.3,4.3-5.7,9.9-5,15.8c0.2,1.8,0.4,3.6,0.5,5.5c0.5,35.7-3.3,64.7-23.2,90.2c-12.4,15.9-29.9,24.8-46.8,33.5l-0.2,0.1
				c-13.1,6.7-25,11.5-36.4,14.6c-2,0.6-3.6,1.1-4.8,3c21.9,9,35.3,27.5,48.2,45.3l1.5,2.1c1.1,1.6,2.4,3.1,3.7,4.5
				c2.5,2.9,5.1,5.9,6.7,9.7c7.1,16.6,0,37.9-15.5,46.7c-3.8,2.2-7.3,3.2-10.3,3.2c-1.7,0-3.3-0.4-4.7-1.1
				c-4.2-2.2-8.8-3.2-13.7-4.3c-7.4-1.6-15-3.3-21.9-9.3c1,4,1.9,7.8,2.8,11.5c2.1,8.4,4,16.4,5.7,24.3c8.1,37.8,10.8,67.2,8.7,95.5
				c-0.1,2-0.4,4-0.7,6c-0.2,1.3-0.4,2.7-0.5,4c-0.5,4.7-2.8,7.3-7.2,8.1c-1.9,0.4-3.9,1-5.8,1.5c-2.9,0.9-6,1.8-9,1.9
				c-10.2,0.2-19.6,3.8-28.6,7.3c-3.2,1.3-6.5,2.5-9.9,3.7c-9.1,3.1-12.6,8.4-11.2,17.3c0.1,0.9,0.1,1.8,0,2.7c0,0.3,0,0.5-0.1,0.8
				c1.1,0.3,2.2,0.5,3.3,0.8c2.8,0.7,5.8,1.4,8.6,2.3c3.9,1.3,5.9,3.4,6,6.5c0.2,3.8-2.5,5.6-5.4,6.9c-5.5,2.6-11.7,4.2-18.5,4.7
				c-8,0.7-15.4,1-22.6,1c-13.6,0-26-1.2-38-3.6c-0.8-0.2-1.6-0.3-2.4-0.4c-4.7-0.8-10.7-1.7-10.8-7.9c-0.1-6,5-6.9,9.6-7.8
				c1.2-0.2,2.3-0.4,3.3-0.7c2.1-0.6,4.3-0.9,6.3-1.1c3-0.3,4.5-1,4.4-3.8c-0.2-3.4-1-5.5-4.2-5.8c-1.4-0.1-2.8-0.2-4.1-0.3l-0.9,0
				c-8.8-0.4-17-0.6-25-0.6c-7.9,0-15.6,0.2-23,0.6l-1.3,0.1c-1.2,0.1-2.5,0.1-3.7,0.2c-3.3,0.3-4.1,2.5-4.2,5.8
				c-0.1,2.8,1.4,3.5,4.4,3.8c4.5,0.5,9.8,1.3,14.8,3.6c2.1,0.9,4.8,2.6,4.7,6c-0.1,3.3-2.5,4.8-5,5.8c-6,2.6-12.5,3.4-18.8,4.1
				l-1,0.1C374.3,919.3,365.1,919.9,356.5,919.9z M440.3,907.5c13.2,3.6,29.5,5.6,45,5.6c16.3,0,29.4-2.3,35.4-6.2
				c-2.2-2.3-5.2-2.6-8.2-3c-1.9-0.2-3.9-0.5-5.8-1.2c-0.6-0.3-1.2-0.6-1.7-0.9l-6.9-0.5l-0.5,0c-1.6,0-3.1-0.1-4.7-0.1
				c-11.7,0-24.4,1-39.7,3l-0.9,0.1C448.2,904.9,444.4,905.4,440.3,907.5z M317.3,908.9c11.1,2.8,22.4,4.1,34.7,4.1
				c17,0,33.5-2.6,47.6-5.3c-4.7-2.3-8.7-2.8-12.7-3.3c-0.7-0.1-1.4-0.2-2.2-0.3c-13.4-1.9-26.7-2.9-39.5-2.9c-1.2,0-2.5,0-3.7,0
				l-0.6,0l-6.9,0.5c-0.5,0.3-1,0.7-1.7,0.9c-1.6,0.7-3.3,0.9-5.1,1.2c-2.5,0.4-5.1,0.7-7.3,2.3l-0.4-0.3l0.3,0.4
				C319,907,318.1,907.9,317.3,908.9z M471.2,897.9c5.8,0,11.8,0.1,17.5,0.1c2.8,0,5.6,0.1,8.5,0.1l0.9,0c2.2-0.1,3.6-0.7,4.3-1.6
				c0.7-0.9,0.9-2.2,0.6-4.1c-1.9-11.2,3-18.3,15-21.7c0.4-0.1,0.8-0.2,1.2-0.3c1.8-0.3,3.6-0.6,3.6-3.7l-0.2,0
				c-7.4,0-14.7-1.2-21.9-2.3c-4.3-0.7-8.8-1.4-13.2-1.8c-11.4-1.1-11.7-1.5-13.3-13.4c-0.6-4.8-1.1-9.7-1.5-14.5
				c-0.2-2-0.3-4-0.5-6c-16.6,0.8-33.9,1.1-51.4,1.1c-17.5,0-35.1-0.4-54-1.1c-0.2,2.2-0.4,4.4-0.5,6.5c-0.4,4.8-0.8,9.4-1.4,14
				c-1.6,11.8-1.8,12-13.3,13.4c-1.2,0.1-2.4,0.3-3.7,0.4c-2.1,0.2-4.2,0.5-6.4,0.8c-6.2,0.9-12.4,1.8-18.8,2.8l-7.1,1.1
				c0.2,0.3,0.4,0.6,0.5,0.8c0.2,0.3,0.3,0.5,0.4,0.6c11.6,3.2,23,8.9,19.7,26c-0.1,0.8-0.1,1.3,0.2,1.7c0.5,0.7,1.6,0.8,2.7,1
				c0.7,0.1,1.4,0.2,2,0.4l9.2-0.1c8-0.1,16.4-0.2,24.5-0.2c2,0,3.9-0.1,4.9-1.2c0.7-0.7,1-1.9,0.9-3.6c-0.2-3.2,0.6-5.7,2.3-7.6
				c1.8-2,4.7-3,8.3-3.1c8.9-0.1,18.2-0.2,27.6-0.2c9.3,0,19,0.1,28.9,0.2c3.7,0,6.6,1.1,8.4,3c1.5,1.6,2.2,3.7,2.1,6.4
				c-0.1,2.3,0.3,3.8,1.2,4.7c1.1,1.1,3,1.4,5.5,1.4l0.5,0C467.4,897.9,469.3,897.9,471.2,897.9z M478,632.9
				c1.5,7.4,2.7,21.2,3.7,41.2c0,0.8,0.1,1.4,0.1,1.8c3.1,54.7,1.8,109.6,0.4,156.9c-0.1,4.9,0.1,9.8,0.4,13.9
				c0.4,6.3,3.9,9.9,10.6,10.5l3.2,0.3c6.4,0.6,12.9,1.3,19.4,1.8c5.3,0.4,10.9,0.6,16.6,0.6c12.6,0,25.9-0.9,43.1-3
				c-0.2-2.8-0.4-5.6-0.6-8.3c-0.5-6-0.9-11.7-1.1-17.4c-1.3-39.3-7.8-78.7-19.8-120.5c-1.2-4.1-3-8-4.8-11.7
				c-1.2-2.6-2.5-5.2-3.6-8c-0.7-1.9-1.7-2.7-3.1-2.7c-0.6,0-1.3,0.2-2.2,0.5c-1.2,0.4-2.3,0.9-3.5,1.4c-3.1,1.3-6.3,2.6-9.6,3.4
				c-3.1,0.7-6,1.1-8.6,1.1c-6.1,0-11-2-14.3-5.7c-3.9-4.4-5.4-11.2-4.4-19.5c1.6-12.9,6.6-24.9,15.4-36.6
				c-4.4-0.6-8.6-0.8-12.5-0.8c-4.7,0-8.8,0.4-12.1,1.2l-0.1,0l-0.1,0c-3-0.4-6-0.6-8.7-0.6C480.5,632.8,479.2,632.8,478,632.9z
				 M309.6,627.2c-2,8.5-9.1,34.5-11.2,41.3c-22.1,69.6-33,127.6-34.5,182.7c-0.1,4.4,0.3,6.2,5.3,6.7c10.9,1.2,22.3,1.8,33.8,1.8
				c15,0,30.3-1,46.8-2.9c5.1-0.6,7-2.6,6.9-7.3c-0.1-4.3,0-8.7,0.1-12.9c0.1-4.9,0.2-9.9,0.1-14.9c-1.5-43.9-0.7-90.3,2.3-150.4
				l0-0.7c0.4-8.4,1.4-27.8,2.2-38.4c-4.9-0.5-9.9-1-14.7-1.6c-11-1.3-22.4-2.6-33.8-2.6l-1.1,0l-0.1-0.1c-0.4-0.2-0.8-0.4-1.3-0.4
				l-0.1,0L309.6,627.2z M419.6,668.8c-1.6,0-3.4,1.9-6.3,6.5c-6,9.5-12,19.3-17.9,28.7c-8.8,14.2-17.9,28.8-27,43.1
				c-2.7,4.3-3.9,8.2-3.7,12.6l0.2,5.3c0.5,16.5,1.1,33.6,1,50.3c0,3,0.5,4.9,1.7,6.1c1.1,1.1,2.9,1.6,6.1,1.6c0.2,0,0.5,0,0.8,0
				c5.5-0.1,11.5-0.2,18.8-0.2c4.2,0,8.5,0,12.7,0c4.2,0,8.4,0,12.6,0l0.1,0c4.4,0,8.8,0,13.3,0c4.4,0,8.8,0,13.3,0
				c7.9,0,14.4,0,20.3,0.2c0.2,0,0.4,0,0.6,0c4.9,0,7.2-1.1,7.2-7c0-16.8,0.5-33.9,1-50.5l0.2-6.4c0.1-4.1-0.9-7.5-3.4-11.5
				c-8.7-13.7-17.4-27.7-25.9-41.3c-6.4-10.4-13.1-21.1-19.7-31.5C422.9,670.5,421.1,668.8,419.6,668.8z M227.5,772.9
				c7.5,15.2,16.5,24.2,29.1,29c2.2-5.9,2.7-11.7,3.2-18.5c0.2-2.8,0.5-5.7,0.8-8.8c-2.1,0.2-4.3,0.4-6.6,0.4
				c-4.8,0-9.6-0.5-14.2-1.1C235.9,773.5,231.7,773,227.5,772.9z M236.3,721.4c-1.7,0-3,1.2-4.1,3.7c-2.4,5.8-4.9,11.7-7.3,17.4
				c-1.3,3.1-2.7,6.2-4,9.3c-1.1,2.6-1.3,4.6-0.5,6.3c0.8,1.8,2.8,3.2,6.1,4.3c9.7,3.2,19.6,3.8,27.2,4l0.2,0c1.2,0,2.3,0.1,3.2,0.1
				c5.4,0,5.6-0.7,7.3-8.7c1.2-5.7,2.3-11.4,3.6-17.4l1.6-8c-3.5-1.1-6.9-2.1-10.3-3c-7-1.9-13.7-3.7-19.9-7
				C238.2,721.7,237.1,721.4,236.3,721.4z M474.8,633.2c-9.9,1.4-17.8,5.9-24.1,13.9c-2.7,3.4-6.3,6.2-9.7,9c-1.5,1.2-3,2.4-4.5,3.6
				c-5.1,4.4-6.6,8.2-4.4,11.5c0.6,0.8,1.2,1.8,1.9,2.9c10.1,16.2,20.5,32.7,30.5,48.5l5.7,9c0.2,0.3,0.4,0.6,0.5,0.9
				c0.7,1.3,1.4,2.6,3.4,2.8c0.3-10.6-0.2-23-0.7-36.1C472.7,676.4,471.7,652.7,474.8,633.2z M363.6,632.3c3.6,18.4,3,41.7,2.4,64.3
				c-0.4,13.9-0.7,27.1,0,38.2c11.8-17.4,23.1-35.2,34-52.4c2.6-4,5.1-8.1,7.7-12.1c2.2-3.5,1.2-5.3-1.6-7.8c-3-2.6-6-5.2-9-7.7
				c-7.2-6-14.6-12.3-21.1-19.4c-1.6-1.7-3.4-2.5-6.4-2.7C367.8,632.6,365.9,632.5,363.6,632.3z M237.4,717.7
				c2.5,0.5,4.9,1.1,7.4,1.6c5.6,1.2,11.4,2.5,17.1,3.6c3.3,0.6,5.3,1,6.9,1c3.2,0,3.8-1.8,5.7-8.5c5.4-19.6,12.5-39,19.3-57.8
				c2.1-5.7,4.2-11.7,6.3-17.5c2-5.8,4.2-10.4,6.4-14l-0.2-0.1c-3.1-1-5-1.6-6.4-1.6c-2.2,0-3.5,1.7-6.9,6.1
				c-0.9,1.2-1.9,2.5-3.1,4.1c-17.6,22.3-34,47.1-48.7,73.6c-0.4,0.7-0.8,1.4-1.3,2.1C238.1,712.6,236.7,714.8,237.4,717.7z
				 M592.3,716c5.7,1.9,9.5,2.7,12.6,2.7c5.1,0,8.6-2.1,13.3-8.2c9.8-12.5,9.9-21.8,0-36.8c0,0,0,0,0,0c-0.1,0.1-0.4,0.1-0.4,0.2
				c-2.8,4.7-5.6,9.5-8.2,14.3C604.5,697.5,599.2,707,592.3,716z M568.6,682c-2,0-3.4,0.4-4.6,2.4c-5.5,9.2-4.6,13.8,4.1,19.8
				c0.8,0.5,1.6,1.1,2.3,1.6c2,1.3,4,2.7,6,4.2c2,1.5,3.7,2.2,5.3,2.2c2,0,3.9-1.2,5.7-3.8c9.1-13,16.9-26.5,23.2-40.4
				c2.1-4.5,0.8-7.6-4-10.3c-1.1,1-1.2,2.2-1.3,3.5c-0.1,0.6-0.1,1.3-0.3,1.9c-4.7,15.2-9.9,19.1-25.3,19.1c0,0-3.7,0-5.1,0
				c-1.9,0-3.8,0-5.7,0H568.6z M554.8,683.4c-2.3,0-3.7,0.5-4.2,2.8c-0.2,1.2,0.2,2.7,1,3.6c0.6,0.7,1.2,1,2,1c0.1,0,0.2,0,0.3,0
				c2.7-0.3,3.3-2.7,4.1-5.8c0.1-0.5,0.2-1,0.4-1.4c-0.6,0-1.2,0-1.7-0.1C555.9,683.4,555.3,683.4,554.8,683.4z M532.9,617.3
				c1.1,0,2.2,0.2,3.3,0.7l0.4,0.1l-0.1,0.4l-0.1,0.4c0,0.3-0.1,0.6-0.1,0.9c-0.3,1.5-1.4,2.2-2.4,2.9c-0.4,0.3-0.8,0.5-1.2,0.8
				c-13.5,12.3-22.2,27.9-25.7,46.4c-1.1,5.6-0.3,10.2,2.2,13.2c2.1,2.5,5.3,3.9,9.4,3.9c1.9,0,3.9-0.3,6-0.8c0.5-0.1,1-0.2,1.5-0.3
				c1.2-0.2,2.3-0.5,3.2-1c13.2-7,28.1-10.5,45.5-10.5c2,0,4,0,6.1,0.1c0.4,0,0.8,0,1.2,0c7.6,0,11.3-3.2,13.7-11.7
				c2.8-9.8,0.9-17.6-6-23.7c-8.9-8-17.4-13.2-26.6-16.2c-1.6-0.5-3.2-1-4.8-1.5c-2.8-0.8-5.6-1.7-8.4-2.7
				c-9.1-3.4-9.8-4.5-9.9-14.2c0-3.9,0.7-7.9,2.2-12.5l0.6-1.8c1.8-5.3,3.7-10.7,5.1-16.2c0.1-0.5,0.2-0.9,0.4-1.4
				c1.6-6,3.4-12.8-2.9-16.4c-1.5-0.9-3-1.3-4.5-1.3c-4.7,0-9,4.3-12.4,7.8c-12.3,12.5-17.8,28.8-16.3,48.3
				c0.3,3.4,1.4,7.3,2.5,11.2c0.8,2.8,1.6,5.6,2.1,8.3c2.3-2.8,4.8-5.7,7.4-8.4C526.9,619.6,529.6,617.3,532.9,617.3z M380.6,633.8
				c12.2,8.9,24,17.7,34.8,27.5c1.5,1.4,2.8,2,4.1,2c1.2,0,2.5-0.6,4-1.8c8.2-6.7,16.3-13.3,24.9-20.3c3-2.4,6-4.9,9.1-7.4
				c-1.5-0.2-2.8-0.4-4.2-0.5c-3.5-0.4-6.5-0.7-9.4-1.6c-1.6-0.5-3.2-0.7-4.7-0.7c-6.8,0-12.5,4.9-17.7,10.2l-0.2,0.2l-0.3-0.1
				c-2.8-0.5-5.1-2.7-7.3-4.9c-2.4-2.3-4.9-4.7-7.9-4.9c-1-0.1-2.1-0.1-3.3-0.1c-4.9,0-10.3,0.8-16,1.6
				C384.7,633.2,382.7,633.5,380.6,633.8z M316.3,544.9c13.4,13.1,25.6,22.8,38.4,30.7c18.9,11.6,36.4,25.7,52.2,41.9
				c6.1,6.2,10.4,11.9,12.8,16.8c0.2-1.5,0.5-2.8,0.8-3.5c3.9-9.3,11.8-15.5,19.5-21.6c2.4-1.9,4.9-3.9,7.2-5.9
				c11-9.7,23.1-18.2,34.8-26.5c9.9-7,20.2-14.3,29.7-22.2c0.8-0.6,1.6-1.3,2.4-1.9c3.1-2.4,6.4-5,9.1-9.2c-8.7,0.7-14.1,3.7-18.6,7
				c-23,16.2-44.8,28.8-66.7,38.5c-6.3,2.8-12.8,4.2-19.1,4.2c-6.4,0-12.8-1.4-19.2-4.3c-21.4-9.5-42.6-21.7-66.7-38.5l-0.6-0.4
				c-4-2.8-7.7-5.4-13.1-5.4C318.3,544.7,317.3,544.7,316.3,544.9z M437,624.9c7.5,1,15,1.5,23.1,1.5c16.4,0,32.4-2.2,45.9-4.3
				c0.2-0.5,0.4-0.9,0.6-1.2c0.1-0.3,0.3-0.5,0.3-0.6c-0.1-0.7-0.3-1.5-0.4-2.2c-0.2-0.9-0.3-1.8-0.5-2.7
				c-2.9-23.6,2.8-42.4,17.4-57.6c6-6.3,13.1-9.8,19.3-9.8c2.7,0,5.1,0.6,7.2,1.9c7,4.2,8.8,13.4,5.3,25.9c-0.9,3.3-2,6.5-2.9,9.7
				c-1.5,4.7-3,9.6-4.2,14.5c-1.3,5.3-1.4,8.3-0.3,9.8c0.6,0.8,1.7,1.2,3.2,1.2c1.6,0,3.8-0.4,6.8-1.3c2.6-0.8,5.3-1.6,7.9-2.3
				c15.6-4.6,31.8-9.3,46.9-16.3c28.2-13,46.2-32.8,55-60.3c7-21.9,9-44.4,10.7-69.5c-2,0-3.9,0-5.8,0.1c-1.9,0-3.7,0-5.4,0
				c-2.7,0-5-0.1-7-0.2c-0.3,0-0.6,0-0.8,0c-3.8,0-5.6,1.8-5.8,6.1c-0.2,2.6-0.4,5.8-0.8,8.8c-4.7,32-21.4,51.5-51.2,59.5
				c-20.7,5.6-38.3,9.2-56.7,9.2c-2.3,0-4.7-0.1-6.9-0.2c-0.6,0-1.2,0-1.7,0c-5.2,0-8.7,1.6-12,5.5c-7,8.2-15.6,14.9-24,21.3
				c-1.2,0.9-2.4,1.9-3.6,2.8c-15.5,12-32,25.1-50.4,40.1c-0.4,0.3-0.8,0.6-1.2,0.9C441.7,617.7,438.4,620.3,437,624.9z
				 M161.2,461.2c0.6,19.9,2.7,38.1,6.4,55.7c7.9,37.2,29.9,63,65.3,76.7c35.5,13.7,82.8,29.5,134.4,30.3c2,0,4,0.1,6,0.1
				c3,0.1,6.1,0.2,9.1,0.2c7.2,0,12.9-0.5,18.1-1.7c-2-4.3-5.2-6.8-8.3-9.3l-0.9-0.7l-3.9-3.2c-10-8.1-20.2-16.5-30.7-24.2
				c-2.8-2.1-5.7-4.1-8.4-6.2c-11.7-8.4-23.8-17.1-33.1-28.7c-3.4-4.2-6.7-5.8-11.9-5.8c-0.5,0-1,0-1.5,0c-2.6,0.1-5.2,0.2-7.9,0.2
				c-19.6,0-40-3.8-64.1-12c-21.5-7.3-35.3-22.9-41-46.3c-1.2-5-1.9-10.2-2.5-15.3c-0.2-1.6-0.4-3.1-0.6-4.7
				c-0.5-3.8-2.1-5.3-5.6-5.3c-0.2,0-0.3,0-0.5,0c-2.1,0.1-4.3,0.1-7.1,0.1c-1.7,0-3.5,0-5.4,0C165.2,461.2,163.2,461.2,161.2,461.2
				z M350.4,553c17.3,11,37.8,23.1,60.5,31.1c2.7,0.9,5.3,1.4,7.9,1.4c2.3,0,4.5-0.4,6.7-1.1c22.4-7.6,42.7-19.6,61.6-31.4
				c-7.6,0.8-15.3,1.8-22.7,2.8c-14.6,2-29.8,4-44.9,4c0,0-0.8,0-0.8,0c-14.9-0.1-29.8-2-44.3-3.9
				C366.6,554.9,358.5,553.8,350.4,553z M326,541.2c4.6,0.7,8.9,1.5,13.2,2.2c10,1.7,19.4,3.3,28.7,4.3c5.9,0.6,11.8,1.6,17.5,2.5
				c10.2,1.6,20.8,3.3,31.3,3.3c2.6,0,5.1-0.1,7.5-0.3c29.9-2.5,59.4-7.2,87.2-11.9c-36.7-21.4-62.3-41.1-83-63.5
				c-3.2-3.5-6.1-5.2-8.9-5.2c-3,0-6,1.9-9.3,5.9c-7.8,9.6-17.1,17.2-26.1,24c-2.9,2.2-5.8,4.4-8.7,6.7
				C360.7,520.7,345.3,532.6,326,541.2z M181.4,453.3c7.1,0.2,9.9,2.7,11.2,10.1c0.5,2.8,0.9,5.6,1.3,8.4c0.4,2.6,0.7,5.2,1.2,7.8
				c4.5,25.4,18.2,41.2,41.8,48.2c20.6,6.1,39.6,9.1,58.1,9.1c3.9,0,7.8-0.1,11.6-0.4c18.7-1.3,32.9-9.1,43.4-23.9
				c11.5-16.2,17-34.4,20.4-48.3c3.6-14.7,9.7-19.9,25-21.3c8.1-0.8,16.3-1.2,24.4-1.2c8.3,0,16.7,0.4,24.9,1.2
				c13.4,1.3,20.1,6.8,23.8,19.7c0.5,1.9,1,3.9,1.4,5.8c0.3,1.3,0.6,2.7,0.9,4c3.8,15,10,28.3,18.9,40.8
				c10.1,14.2,24,21.8,42.5,23.1c3.9,0.3,8,0.4,12,0.4c18.8,0,38.1-3.1,58.9-9.4c22.4-6.8,35.7-21.9,40.7-46.3
				c0.4-1.9,0.6-3.9,0.8-5.9c0.2-1.4,0.3-2.8,0.5-4.2c2.1-13.6,2.7-17.2,11.6-17.2c2.4,0,5.5,0.2,9.4,0.6c1.2,0.1,2.4,0.2,3.6,0.2
				c1,0,1.8-0.1,2.6-0.2c5.7-0.8,8.3-3.6,8.6-9.5c0.8-17.3-1.1-19.5-18.2-21.5l-0.5-0.1c-0.5-0.1-0.9-0.1-1.4-0.1
				c-0.2,0-0.4,0-0.6,0c-1.7,0.3-3.4,0.4-5,0.4c-9.7,0-17.4-4.9-23.5-14.9c-0.4-0.6-0.9-1.2-1.4-1.8c-0.3-0.4-0.6-0.7-0.9-1.1
				c-9.8-12.4-22.4-19.2-37.4-20.3c-14.5-1-27.3-1.5-39.2-1.5c-14.4,0-27.6,0.7-40.3,2.2c-21.6,2.5-33.5,11.1-38.7,28
				c-0.3,0.9-0.7,1.6-1.2,2.4c-0.2,0.4-0.4,0.7-0.6,1.1c-3.4,6.5-8.6,10-16.4,10.8c-10.1,1.1-21,1.6-33.3,1.6
				c-12.1,0-24.4-0.5-34.9-1c-12.2-0.6-20-6.4-23.9-17.9c-4.7-13.8-14.5-21.2-31.9-24.1c-14.1-2.4-28.4-2.6-40.7-2.6
				c-2,0-3.9,0-5.9,0c-2,0-4,0-6,0.1c-2,0-4,0.1-6,0.1c-2.7,0-4.9-0.1-7-0.2c-1.8-0.1-3.7-0.1-5.4-0.1c-26.6,0-46.2,10.4-59.8,31.9
				c-2.9,4.6-6.6,6.7-11.6,6.7c-0.5,0-1,0-1.5-0.1c-1-0.1-2.1-0.1-3.3-0.1c-5.3,0-10.6,0.9-15.8,1.8c-1.2,0.2-2.3,0.4-3.5,0.6
				c-2.9,0.5-5.2,1.1-6.3,4.3c-3,8.8-3,15.2-0.2,19.2c2.4,3.3,7,5,13.6,5c1.5,0,3.2-0.1,4.9-0.3c0.4,0,0.8-0.1,1.1-0.1
				c0.8-0.1,1.6-0.2,2.4-0.2L181.4,453.3z M418.9,448.3c-8.3,0-16.6,0.5-24.9,1.5c-10.1,1.2-15.5,6.1-17.5,15.8
				c-3.2,15.2-7.5,28.1-13.3,39.4c-0.3,0.5-0.6,1-0.9,1.5c-1,1.5-2,3.1-1.5,5.4c4.3-3.6,8.7-7.1,12.9-10.5
				c11.7-9.4,22.8-18.2,32.3-29.4c3.8-4.5,8.5-6.9,13.4-6.9c4.1,0,8.2,1.7,11.7,4.8c1.5,1.3,2.8,2.9,4.1,4.4
				c0.6,0.7,1.2,1.4,1.9,2.1c11.7,12.7,25.2,22.6,39.6,33l1.1,0.8c-6.5-13.5-11.6-28.8-16.1-48.1c-1.6-6.9-6.2-10.9-13.8-11.9
				C438.3,448.9,428.5,448.3,418.9,448.3z M399.8,422.2c0.8,0,1.5,0,2.3,0c0.7,0,1.3,0,2,0l0.1,0l0.1,0c5.1,1.9,10.3,2.8,15.4,2.8
				c5.1,0,10.3-1,15.4-2.8l0.1,0l0.1,0c1.7-0.1,3.4-0.1,5.1-0.2c3.7-0.1,7.5-0.2,11.3-0.4c8.8-0.5,14.3-4.3,16.8-11.8
				c0.5-1.6,1.2-3.1,1.8-4.5c0.4-0.8,0.7-1.6,1.1-2.5c4-9.9,10.8-16.2,20.8-19.4c7.5-2.4,13.7-3.9,19.6-4.8
				c13.9-1.9,27.6-2.2,39.1-2.2c4.6,0,9.3,0,13.9,0.1c2.9,0,5.9,0.1,8.8,0.1c32.8,0.2,54.7,11.3,68.8,35.1c0.4,0.7,0.9,1.4,1.4,2.1
				c1.2,1.7,2.4,2.4,3.8,2.4c0.3,0,0.7,0,1-0.1c2.1-0.5,4.3-0.7,6.6-0.7c4,0,8,0.7,12.1,1.3c4.1,0.7,8.4,1.4,12.7,1.4
				c-0.4-11.8-0.3-23.7-0.3-35.3c0.1-30.4,0.2-61.9-7.7-92.5c-1,0.2-1.8,0.5-2.6,0.7c-1.7,0.4-3,0.7-4.3,1.1
				c-22.5,6.8-45.5,10.3-68.3,10.3c-25.9,0-52.3-4.5-78.4-13.3c-10.6-3.6-18.5-8-24-13.6c-1.7,2.8-4.2,6.2-6.2,8.8
				c-1.1,1.5-2.1,2.8-2.5,3.4c-7.5,12.3-17.9,21-33.7,28.2c-3,1.4-6.5,2.8-10,2.8c-3.2,0-5.8-1.2-8.2-3.6c-4.4-4.5-5-10.9-1.6-17.1
				c1.3-2.4,2.2-5.1,3.1-7.9c0.6-1.8,1.2-3.6,1.9-5.4c-2.3,1.9-4.6,3.6-6.2,4.9c-0.8,0.7-1.5,1.1-1.8,1.4
				c-21.3,17.5-46.3,28.5-74.4,32.6c-3,0.4-6.1,0.7-9.3,0.7c-3.3,0-6.5-0.2-9.7-0.7c-6.6-1-11-3.5-12.6-7.2c-1.6-3.7-0.5-8.5,3.1-14
				c2.6-3.9,5.8-7.4,8.9-10.9c1.3-1.5,2.7-3.1,4.1-4.7c0.6-0.7,1.3-1.4,2-2.1c1.4-1.4,2.8-2.8,4.1-4.9c-0.1-0.2-0.2-0.3-0.3-0.5
				c-0.2-0.3-0.4-0.6-0.7-0.9c-49,19.3-92.8,28.8-134.1,28.8c-15.7,0-31.2-1.4-45.9-4.3c-5,27.3-4.9,55.4-4.8,82.6
				c0,10.8,0.1,21.9-0.2,32.9c2.6-0.3,5.1-0.8,7.6-1.2c4.8-0.8,9.3-1.6,13.8-1.6c1.2,0,2.4,0.1,3.5,0.2c0.9,0.1,1.8,0.1,2.7,0.1
				c6.4,0,9.6-2.9,13-8c12-18.1,27.7-27.8,48-29.6c14.7-1.3,27.9-2,40.3-2c11.6,0,22.4,0.6,32.9,1.7c7.2,0.8,16.7,2.1,26,5.4
				c11.1,4,17.6,10,20,18.5c3.9,14,12.4,20.5,26.7,20.5c1.2,0,2.5,0,3.8-0.1C398.4,422.2,399,422.2,399.8,422.2z M369.9,258.7
				c1,0,1.9,0.5,2.5,1.5c0.8,1.4,0.7,2.9-0.4,4c-1.5,1.5-3.2,3-4.7,4.4c-1.8,1.6-3.6,3.3-5.4,5.1c-1.6,1.6-3.3,3.2-5,4.8
				c-8.5,8.2-17.2,16.6-24,26.6c-2.9,4.2-3.9,7-3,8.6c0.8,1.7,3.7,2.5,8.9,2.7c1.1,0,2.2,0.1,3.2,0.1c20.2,0,40.4-6,61.9-18.2
				l0.4-0.2l0.1,0c5.5-1.6,13.6-7.1,21.5-12.4c7.7-5.2,15.6-10.5,21.4-12.6l1.1-0.4l-0.4,1.1c-0.9,2.2-1.8,4.3-2.7,6.3
				c-1.9,4.5-3.5,8.4-5.2,12.3c-1.9,4.2-2.9,8.2-3,12c-0.1,2.8,0.3,4.7,1.4,5.8c0.7,0.8,1.8,1.1,3.2,1.1c0.9,0,2-0.2,3.3-0.5
				c8-2.3,14.2-7.4,20.9-13.3c4-3.5,9.9-9,15.7-14.3c5.3-4.8,10.3-9.4,13.7-12.5l0.5-0.4l0.3,0.6c0.3,0.6,0.2,1.7-0.6,3.2
				c44.4,17.3,71,19.3,87.2,19.3c2.2,0,4.5,0,6.7-0.1c5.7,0.4,11.3,0.6,16.9,0.6c21.7,0,42.7-2.8,64.3-8.7
				c-8.9-36.2-28.4-62-59.6-78.9c-22.6-12.3-48.7-18.9-79.9-20.2c-42.2-1.8-83.7-2.5-118.8-2.9c-1.1,0-2.3,0-3.4,0
				c-10,0-20.1,0.5-29.9,1c-6.5,0.3-13.1,0.7-19.7,0.8c-6.6,0.2-13.3,0.3-19.8,0.3c-9.3,0.1-18.9,0.2-28.3,0.6
				c-33.8,1.6-60,8.1-82.4,20.3c-32,17.5-52.1,44.4-59.5,79.9l0,0.2l-0.1,0.1c-1.3,1-1.6,2.5-1.8,4.1c-0.1,0.5-0.2,0.9-0.3,1.3
				c-0.6,2.7-1.2,5.5-1.9,8.9c77.5-1.6,100.2-5.3,148.9-19c15.8-4.5,31-11.5,45.8-18.3l2-0.9c0.6-0.3,1.3-0.6,1.9-0.9
				c1.6-0.8,3.3-1.6,5-2.2C369,258.8,369.4,258.7,369.9,258.7z"/>
			<path class="st6" d="M684.9,423.5c-1.3-2.8-2-5.4-1.6-8.4c2.8-22.2,2-44.6,2.3-67c0.3-18.2-1.6-36.2-5.2-54
				c-9.1-44.9-32.5-78.9-74.5-99.1c-24.4-11.7-50.4-16.6-77.1-17.3c-69.1-1.8-138.3-0.7-207.5-0.5c-16.4,0-32.9,1.5-49,5
				C214.8,194.8,175.5,227,160.8,286c-10.2,41.2-7.1,82.9-5.5,124.6c0.2,5.1-0.3,9.6-1.4,14.6c-2.6,11.5-7.1,24,4.2,34.1
				c2.1,1.9,1.2,4.7,0.7,7.2c-4.1,23.4,0,46.1,6.3,68.6c5.8,20.3,18,36.2,35.5,47.6c17.6,11.6,36.4,21,56.5,27.7
				c11.8,3.9,24.1,6.7,36,12.4c-25.2,28-45.6,58.4-62.9,90.8c-6.6,12.3-12.2,25-16.6,38.2c-2.2,6.4-1.7,11.6,4.8,15
				c3.6,1.9,5.4,4.4,6.4,8.6c3.5,14.9,13,25.4,26.8,31.5c4.9,2.2,6,4.7,5.9,9.4c-0.2,8-0.4,16,0.2,24c1.7,23.5-0.9,20.2,22.9,24.5
				c14.4,2.6,27.4,7.5,40.8,12.5c7.1,2.6,10.2,6.8,9.3,14.2c-0.3,2.1,0,4.2,0.1,6.3c-4.5,1.2-9.2,1.8-13.3,3.7
				c-6.1,2.7-6.3,8.2-0.5,11.3c3.3,1.8,7,2.9,10.7,3.7c19.2,4,38.6,3.2,57.9,0.9c6.7-0.8,13.4-1.5,19.7-4.2c2.3-1,4.6-2.4,4.7-5.4
				c0.1-3-2.1-4.5-4.4-5.6c-4.6-2.1-9.6-3-14.7-3.5c-2.7-0.3-5-0.9-4.8-4.3c0.2-3.2,0.9-5.9,4.7-6.3c1.7-0.2,3.4-0.2,5-0.3
				c16-0.9,32-0.7,48,0c1.7,0.1,3.4,0.1,5,0.3c3.8,0.4,4.5,3.2,4.7,6.3c0.2,3.5-2.1,4-4.8,4.3c-2.1,0.2-4.2,0.5-6.2,1.1
				c-5.1,1.4-12.7,1-12.6,8c0.1,6.8,7.8,6.8,12.8,7.8c20,4.1,40.2,4.4,60.4,2.6c6.3-0.5,12.5-2,18.3-4.7c2.8-1.3,5.3-2.9,5.1-6.5
				c-0.2-3.5-2.8-5.1-5.7-6c-4-1.3-8.1-2.1-12.2-3.2c0-1.3,0.3-2.6,0.1-3.8c-1.4-9.4,2.4-14.8,11.5-17.9c12.7-4.3,24.7-10.8,38.6-11
				c4.9-0.1,9.8-2.5,14.7-3.4c4.5-0.8,6.3-3.5,6.8-7.6c0.4-3.3,0.9-6.7,1.2-10c2.4-32.3-1.9-63.9-8.6-95.3
				c-2.5-11.7-5.5-23.2-8.9-37.4c11.6,11.2,25.5,8.8,36.7,14.6c4.4,2.3,9.9,0.5,14.6-2.2c15.4-8.7,22.3-29.8,15.3-46
				c-2.4-5.6-6.9-9.4-10.4-14.2c-13.8-19-27.2-38.2-50.1-47.4c1.4-2.6,3.3-3.2,5.4-3.8c12.7-3.4,24.7-8.6,36.3-14.5
				c17.3-8.8,34.5-17.6,46.9-33.5c20.8-26.7,23.5-57.9,23.1-89.8c-0.1-7.8-3.8-15.8,4.7-21.6c1-0.7,1.3-3.1,1.3-4.7
				C687.7,440,688.6,431.4,684.9,423.5L684.9,423.5z M680.4,418.7c-11.2,0.1-21.3-4.4-31.9-2.1c-2.4,0.5-4-0.7-5.3-2.5
				c-0.5-0.7-0.9-1.4-1.4-2.1c-15.5-26-39.5-34.7-68.4-34.8c-20.6-0.1-41.2-0.8-61.8,2c-6.7,0.9-13.1,2.7-19.6,4.7
				c-9.9,3.2-16.6,9.6-20.5,19.1c-1,2.3-2.1,4.6-2.9,7c-2.7,8.4-9,11.6-17.2,12.1c-5.5,0.3-10.9,0.4-16.4,0.6
				c-10.4,3.8-20.7,3.8-31.1,0c-2.1,0-4.2-0.2-6.3,0c-15.7,1.1-26.4-4.4-31-20.7c-2.6-9.4-10.4-14.8-19.7-18.1
				c-8.4-3-17.1-4.4-25.9-5.4c-24.4-2.6-48.7-1.9-73.1,0.3c-21.1,1.9-36.4,12.4-47.6,29.4c-4.1,6.2-8,9-16.1,8.1
				c-8-0.9-16.4,1.6-25.4,2.7c1-39.2-2-78.2,5.1-116.7c63.9,12.4,128-3.7,180.5-24.5c0.3,0.4,0.7,0.8,1,1.3c0.2,0.3,0.3,0.5,0.4,0.8
				c-2,3.4-4.5,5.2-6.3,7.4c-4.3,5.1-9.2,10-12.9,15.5c-7.3,10.8-3.9,18.5,9.1,20.4c6.2,0.9,12.7,0.9,18.9,0
				c27.6-4,52.5-14.7,74.1-32.5c1.2-0.9,5.4-4.1,9.6-7.7c-2.4,5.1-3.3,10.7-5.9,15.3c-2.8,5.1-3.3,11.6,1.5,16.6
				c5.5,5.6,12,3.2,17.7,0.6c14.2-6.5,25.4-14.8,33.5-28c1.1-1.8,6.5-8.3,9-12.8c6.6,6.9,15.8,11,24.3,13.9
				c48.4,16.4,97.2,17.9,146.4,3c2-0.6,4.1-1.1,7.4-1.9C683.4,332.4,678.9,375.7,680.4,418.7L680.4,418.7z M168.6,285.8
				c7.5-36,27.5-62.6,59.8-80.2c25.8-14.1,53.8-19,82.7-20.4c16-0.8,32-0.5,48.1-1c17.7-0.5,35.4-2,53-1.8
				c39.6,0.5,79.2,1.2,118.8,2.9c27.9,1.2,55.1,6.7,80.1,20.3c32,17.3,51.2,43.9,60,79.7c-27.2,7.4-54.2,10.1-81.7,8.2
				c-32.7,1.4-64.5-7.6-94.6-19.4c0.8-1.5,1.1-2.6,0.8-3.2c-7.2,6.5-21.9,20.1-29.5,26.8c-6.3,5.6-12.8,11.1-21.1,13.5
				c-6.1,1.7-8.8-0.6-8.5-6.9c0.2-4.2,1.4-8.3,3.1-12.2c2.5-5.7,4.9-11.4,7.9-18.6c-11.9,4.3-32.1,21.9-42.9,25.1
				c-0.1,0.1-0.2,0.1-0.3,0.2c-20.3,11.6-41.7,19-65.4,18.2c-10.6-0.3-12.2-3.5-6.3-12.1c8.1-11.9,18.9-21.4,29.1-31.4
				c3.3-3.2,6.8-6.2,10.1-9.4c0.9-0.9,1.1-2.2,0.4-3.4c-0.8-1.3-2-1.5-3.2-1c-2.3,0.9-4.6,2.1-6.9,3.1
				c-15.6,7.2-31.3,14.6-47.9,19.3c-55.3,15.6-80.4,17.7-149.7,19.1c0.6-3.2,1.3-6.3,2-9.5C166.8,289.4,166.7,287.2,168.6,285.8
				L168.6,285.8z M232.8,594.1c-35.9-13.9-57.7-39.6-65.7-77c-3.9-18.1-5.9-36.5-6.5-56.3c7.2,0,13.1,0.2,18.9-0.1
				c4.2-0.2,6.1,1.7,6.6,5.7c0.9,6.7,1.5,13.4,3.1,19.9c5.4,22.4,18.3,38.4,40.7,46c23.3,7.9,47,13.1,71.8,11.8
				c6-0.3,9.9,1.1,13.8,5.9c11.5,14.2,27,23.9,41.5,34.7c11.8,8.8,23.2,18.2,34.6,27.4c3.5,2.9,7.4,5.6,9.6,10.8
				c-11.4,2.6-22.7,1.7-33.9,1.5C320.4,623.7,276.2,610.8,232.8,594.1L232.8,594.1z M383.9,502.1c9.4-7.1,18.4-14.6,26-23.9
				c6.6-8,12.2-8,18.9-0.8c23.9,25.9,52.5,45.7,84.1,64.1c-30.2,5.1-59.3,9.6-88.6,12.1c-19,1.6-37.7-3.4-56.5-5.5
				c-13.7-1.5-27.3-4.2-43.6-6.7C348,531.2,365.6,516,383.9,502.1L383.9,502.1z M362.8,504.7c6.3-12.5,10.4-25.7,13.2-39.3
				c2.1-10.1,7.8-15,18-16.2c18.1-2.1,36.1-1.9,54.1,0.5c7.6,1,12.6,5.1,14.3,12.3c4,17.1,9,33.8,16.9,49.8
				c-15-10.9-29.9-21.5-42.4-35c-2-2.2-3.8-4.5-6-6.5c-7.6-6.7-17.3-6.3-24.4,2c-13.3,15.5-29.9,26.9-45.8,40.4
				C359.3,509,361.6,506.9,362.8,504.7L362.8,504.7z M489.2,552.4c-20.3,12.7-40.7,24.9-63.5,32.6c-5,1.7-10.1,1.4-14.9-0.3
				c-22.2-7.9-42.5-19.5-62.4-32.2c23.6,2,46.6,6.8,70.3,7C442.5,559.4,465.5,554.6,489.2,552.4z M333.2,550
				c21.1,14.7,43.1,28,66.6,38.4c12.7,5.6,25.2,5.6,37.9,0.1c23.6-10.4,45.6-23.6,66.6-38.5c5.7-4,11.3-6.6,19.9-7.1
				c-3.6,6-8.2,8.8-12.2,12c-20.8,17.2-44.2,30.9-64.5,48.7c-9.5,8.4-21.4,15.2-26.5,27.3c-0.4,0.9-0.9,3.1-0.9,5.5
				c-2.8-7-9.3-14.2-13.6-18.6c-15.6-16.1-33-30-52.1-41.8c-14-8.6-26.5-19-39.2-31.4C323.4,542.9,328.1,546.5,333.2,550z
				 M362.9,631.7c2.2,0.2,4.4,0.4,6.6,0.5c2.7,0.2,4.8,0.8,6.7,2.8c9.1,10,19.9,18.1,30,27c2.9,2.6,4.1,4.7,1.7,8.5
				c-14,21.9-27.7,44-42.5,65.7C363.5,707,369,661.9,362.9,631.7L362.9,631.7z M368,746.8c15.1-23.8,29.9-47.9,44.9-71.8
				c5.5-8.8,7.8-8.9,13.1-0.5c15.3,24.2,30.2,48.7,45.6,72.9c2.4,3.8,3.6,7.3,3.4,11.7c-0.6,19-1.2,37.9-1.2,56.9
				c0,6.5-2.7,7.6-8.3,7.5c-15.6-0.3-31.2-0.1-46.8-0.1c0,0,0,0,0,0c-14.8,0-29.5-0.2-44.3,0.1c-6.1,0.1-9-1.2-9-8.2
				c0.1-18.5-0.6-37.1-1.2-55.6C364.1,754.9,365.4,750.9,368,746.8L368,746.8z M474.7,736c-3.3-0.1-3.8-2.4-4.9-4
				c-12.1-19.2-24.2-38.3-36.2-57.6c-5.1-8.2-6.7-7.1,2.5-15.1c4.8-4.1,10.3-7.7,14.1-12.5c7-8.9,15.6-13,25.1-14.1
				C470.3,663.7,475.7,707,474.7,736z M423.8,661.8c-3.1,2.6-5.7,2.6-8.8-0.2c-10.8-9.8-22.5-18.6-35.7-28.2
				c9.6-1.2,19-3.1,26.8-2.4c6,0.5,9.7,8.7,15.3,9.8c7.5-7.7,14.3-12.3,22.9-9.6c4.2,1.3,8.8,1.4,14.6,2.3
				C446.5,643.4,435.1,652.6,423.8,661.8L423.8,661.8z M240.5,708c14.3-25.8,30.5-50.5,48.8-73.7c9.2-11.7,7.3-11.8,17.9-8.4
				c-3.1,4.9-5.4,10.8-6.7,14.5c-8.9,25-18.5,49.7-25.6,75.3c-2.7,9.8-2.9,9.8-13.1,7.8c-8.2-1.6-16.4-3.5-24.7-5.3
				C235.8,713.9,238.8,711.1,240.5,708L240.5,708z M256.9,802.5c-14.4-5.3-23.3-15.7-30.2-30.2c12,0.3,22.6,3.2,34.6,1.7
				C259.9,784.9,260.3,793.7,256.9,802.5z M253.7,766.9c-9.3-0.2-18.4-1.1-27.3-4c-5.9-1.9-8.5-5.1-5.9-11.2
				c3.7-8.9,7.6-17.8,11.2-26.7c1.6-4,4.1-5.1,7.8-3.1c9.4,4.9,19.8,6.6,30.6,10.1c-1.9,9.4-3.6,17.6-5.3,25.9
				C262.9,767.2,262.9,767.1,253.7,766.9L253.7,766.9z M269.1,858.4c-5.2-0.6-5.8-2.7-5.7-7.2c1.6-62.8,15.6-123.2,34.5-182.8
				c2.1-6.6,9.5-33.6,11.4-41.8c0.4,0.1,0.7,0.2,1.1,0.3c0.5,0,1,0.2,1.5,0.5c0,0,0,0,0,0h0h0c16.8-0.1,33.3,2.7,50,4.3
				c-0.8,10.8-1.9,31.9-2.3,39.6c-2.5,50.1-3.9,100.2-2.3,150.4c0.3,9.3-0.4,18.5-0.2,27.8c0.1,5.4-2.4,7.2-7.4,7.8
				C322.9,860.4,296,861.3,269.1,858.4L269.1,858.4z M401.2,908c-28.9,5.5-56.2,8.5-84.7,1.2c1-1.5,2-2.5,3.1-3.3c0,0,0.1,0,0.1-0.1
				c4-2.7,8.8-2,12.6-3.5c0.6-0.3,1.2-0.6,1.7-1c2.3-0.2,4.7-0.4,7-0.5c0.2,0,0.4,0,0.6,0c14.5-0.2,28.9,0.8,43.2,2.9
				C389.9,904.4,394.9,904.6,401.2,908L401.2,908z M521.4,907c-11.8,8.4-53.1,8.9-82.5,0.6c4.8-2.7,9.4-3.2,14.1-3.8
				c14.8-2,29.6-3.3,44.5-3c0.2,0,0.4,0,0.6,0c2.3,0.2,4.7,0.4,7,0.5c0.5,0.4,1.1,0.7,1.7,0.9C511.6,904.2,517.6,902.5,521.4,907
				L521.4,907z M518.1,871.2c-10.8,3.1-16.7,9.4-14.7,21.2c0.8,4.7-1.4,6-5.4,6.3c-0.3,0-0.6,0-0.9,0c-10.6-0.1-21.1-0.3-31.7-0.2
				c-4.8,0-7.9-0.5-7.7-6.6c0.3-6.4-4.5-8.8-10-8.8c-18.8-0.2-37.7-0.2-56.5,0c-6.2,0.1-10.5,3.2-10.1,10.1c0.3,4.9-2.6,5.3-6.3,5.3
				c-11,0-21.9,0.2-32.9,0.3c-0.3,0-0.6,0-1,0c-2.1-0.8-6,0-5.3-3.7c3.1-15.9-6.5-21.8-19.4-25.4c-0.3-0.1-0.5-0.7-1.5-2.2
				c9.3-1.4,18-2.7,26.7-3.9c3.3-0.5,6.7-0.8,10-1.2c11.1-1.3,11.3-1.4,12.9-13c0.9-6.6,1.3-13.4,1.9-20.9c35,1.4,70.4,1.6,106.3,0
				c0.7,7,1.1,14,2,21c1.6,11.6,1.7,11.8,12.9,12.9c12,1.2,23.7,4.3,35.7,4.2C523.6,871.2,520.2,870.7,518.1,871.2L518.1,871.2z
				 M574.2,831.2c0.3,8.4,1.1,16.8,1.8,26.1c-20.1,2.4-40.2,3.9-60.3,2.4c-7.6-0.6-15.1-1.4-22.7-2.1c-10.3-1-10.4-1.1-11-11
				c-0.3-4.6-0.5-9.3-0.4-13.9c1.6-52.3,2.5-104.6-0.4-156.8c-0.2-3.2-1.3-31.3-3.8-43.4c4.2-0.3,8.5-0.2,13.1,0.4
				c7.1-1.7,16.6-1.5,25.6-0.3c-8.3,10.8-14.1,22.9-15.8,37c-2.3,18.7,8.4,28,26.8,23.5c4.5-1.1,8.7-3.1,13-4.8
				c2.8-1.1,4.7-0.6,5.9,2.5c2.6,6.7,6.4,12.6,8.4,19.7C565.7,750,572.8,790.1,574.2,831.2L574.2,831.2z M550.1,686
				c0.8-4.2,4.6-3,8.8-3.1c-1.1,4-1.3,7.8-5,8.3C551.1,691.6,549.7,688.1,550.1,686z M618.4,673.1c10.2,15.4,10.3,25,0.2,37.8
				c-7.3,9.3-12.2,10.4-27.1,5.4c10.7-13.7,17.4-28.7,25.9-42.6C617.5,673.4,618.1,673.3,618.4,673.1z M606.4,657
				c4.6,2.5,7,5.7,4.5,11.1c-6.5,14.2-14.2,27.7-23.2,40.5c-3.4,4.9-7.1,5.1-11.6,1.7c-2.7-2-5.5-3.9-8.3-5.8
				c-8.9-6.1-9.9-11.2-4.2-20.5c1.3-2.2,3-2.6,5.1-2.6c3.4,0,6.7,0.1,10.1,0.1c15.8,0.1,20.8-3.6,25.5-18.7
				C604.9,661,604.3,658.7,606.4,657L606.4,657z M590.4,638.8c7.6,6.8,8.7,15.1,6.1,24.2c-2.5,8.7-6.4,12.4-15.4,12
				c-18.1-0.8-35.3,1.7-51.4,10.3c-1.4,0.8-3.2,0.9-4.9,1.3c-13.1,3.4-20.8-3.5-18.3-16.8c3.5-18.3,12-34,25.9-46.7
				c1.2-1.1,3-1.6,3.4-3.4c0.1-0.4,0.1-0.8,0.2-1.3c-4.8-2-8.3,0.9-11.1,3.8c-2.9,3-5.6,6.1-8.1,9.2c-1.1-6.7-4.4-14.5-4.8-20.6
				c-1.5-18.5,3.1-35.1,16.4-48.7c4.7-4.8,10.5-10.6,17.5-6.6c7.2,4.1,4.5,11.9,2.8,18.4c-1.6,6.1-3.7,12.1-5.7,18.1
				c-1.4,4-2.3,8.1-2.2,12.4c0.1,9.4,0.7,10.4,9.6,13.8c4.3,1.6,8.8,2.8,13.2,4.2C573.8,625.9,582.5,631.7,590.4,638.8L590.4,638.8z
				 M668.1,530.9c-9.2,28.7-28.4,48.2-55.2,60.6c-17.6,8.1-36.4,13.2-54.9,18.7c-10.8,3.2-13.2,0.9-10.4-10.2
				c2.1-8.2,4.9-16.1,7.2-24.2c3.5-12.3,1.7-21.2-5.1-25.3c-6.8-4.2-17.1-1.2-25.8,7.8c-15.5,16.1-19.9,35.6-17.3,57.1
				c0.2,1.7,0.6,3.3,0.9,4.9c0,0.3-0.3,0.7-1,2.3c-22.5,3.5-45.7,6.2-70,2.7c1.5-5.7,5.8-8.6,9.3-11.6c16.6-13.6,33.4-27,50.4-40.1
				c9.7-7.5,19.7-14.6,27.6-24c4-4.8,8.3-5.9,14.1-5.6c21.7,1.2,42.6-3.4,63.4-9c30.7-8.2,46.4-28.6,50.8-59.1
				c0.4-2.9,0.6-5.9,0.8-8.8c0.3-4.5,2.2-6.8,7.2-6.5c5.8,0.4,11.7,0.1,18.7,0.1C677.2,485.6,675.2,508.6,668.1,530.9z M681.5,445
				c-0.3,6.3-3.3,9.2-9,10c-2.1,0.3-4.2,0.2-6.3,0c-11.8-1-18.7,4.5-20.5,16.2c-0.5,3.3-0.7,6.7-1.4,10c-4.8,23.4-17.5,39.6-41,46.7
				c-23.2,7-46.8,10.7-71.1,9c-17.7-1.3-32.2-8.4-42.8-23.3c-9-12.6-15.2-26.2-19-41c-0.8-3.3-1.4-6.6-2.4-9.8
				c-3.6-12.7-10.1-18-23.3-19.3c-16.4-1.6-32.8-1.6-49.2-0.1c-14.8,1.4-20.9,6.3-24.5,20.9c-4.3,17.3-10,33.7-20.5,48.5
				c-10.9,15.3-25.5,22.8-43.7,24.1c-23.8,1.7-47-1.9-69.9-8.7c-24.5-7.2-37.8-24-42.1-48.6c-1-5.4-1.5-10.9-2.5-16.2
				c-1.3-7.3-3.8-9.5-10.7-9.7c-1.3,0-2.5,0.2-3.8,0.3c-18.8,1.9-25-6.3-18.9-24.6c1.2-3.5,3.6-4.2,6.7-4.7c7.5-1.2,15-2.9,22.6-2.3
				c5.7,0.4,9.6-1.6,12.6-6.4c15.3-24.1,37.8-33.5,65.7-32c6.3,0.3,12.6,0,19,0c15.6-0.1,31.2,0,46.6,2.6
				c15.1,2.6,26.9,8.8,32.2,24.5c3.7,10.8,10.9,17,23.4,17.5c22.8,1,45.4,1.8,68.1-0.6c7.5-0.8,12.7-4,16-10.5
				c0.6-1.1,1.4-2.2,1.7-3.4c5.9-19.3,20.5-26.2,39.1-28.3c26.5-3,53.1-2.5,79.6-0.7c15.4,1.1,28.1,8.2,37.8,20.5
				c0.8,1,1.7,1.9,2.4,2.9c6.4,10.5,15.2,16.2,28,14.2c0.8-0.1,1.7,0,2.5,0.1C680.3,425,682.3,427.7,681.5,445L681.5,445z"/>
			<path class="st6" d="M520.8,816.1c-3,0-5.4-0.1-7.7-0.2c-11.3-0.8-14-3.2-16.1-14.6c-1.5-8.4-2-12.6-0.2-14.9
				c1.2-1.4,3.2-2,6.8-2c2.2,0,4.9,0.2,8.5,0.5c7.7,0.7,15.5,1.2,23.1,1.7c4,0.3,8.1,0.5,12.1,0.8c12.3,0.9,12.7,1.3,13.8,13.8
				l0.1,0.9c0.1,1.4,0.3,2.8,0.2,4.2c-0.2,7.6-1.8,9.3-9.2,9.6c-2.2,0.1-4.5,0.1-7.3,0.1h0c-1.9,0-3.9,0-5.8,0c-1.9,0-3.9,0-5.8,0
				h-0.5v0c-1.9,0-3.8,0-5.7,0.1C525,816.1,522.9,816.1,520.8,816.1z M501,787.3c2.2,22.4,2.4,22.4,22,23.7
				c4.3,0.3,8.8,0.5,13.5,0.5c1.8,0,3.5,0,5.3-0.1c3.3-0.1,6.6-0.8,9.7-1.6c4.1-1,3.7-3.9,3.3-6.9c-0.1-0.6-0.2-1.2-0.2-1.8
				c0-0.4,0-0.7-0.1-1.1c-0.1-3.3-0.3-6.5-4.9-6.5C534.2,793.3,519,790.9,501,787.3z"/>
			<path class="st6" d="M497.6,801.2c2,11.1,4.4,13.5,15.6,14.2c6.7,0.4,13.4,0.1,20.2,0.1v0c6.3,0,12.6,0.2,18.9,0
				c7.2-0.2,8.5-1.8,8.7-9.1c0-1.7-0.2-3.4-0.3-5c-1.1-12.2-1.3-12.5-13.3-13.3c-11.7-0.9-23.5-1.5-35.2-2.5
				C495.4,784,494.6,784.7,497.6,801.2L497.6,801.2z M549.8,793c5.7,0.1,5.3,4.5,5.5,8.1c0.2,3.5,1.9,8-3.5,9.3
				c-3.2,0.8-6.6,1.5-9.9,1.6c-6.3,0.1-12.6,0-18.9-0.4c-20.3-1.4-20.2-1.5-22.5-24.9C517.5,790.1,533.5,792.8,549.8,793L549.8,793z
				"/>
			<path class="st6" d="M305.6,816c-1.8,0-3.5,0-5.3,0c-1.9,0-3.9,0-5.8,0c-2.8,0-5.2,0-7.3-0.1c-7.5-0.2-9.2-2-9.3-9.4
				c0-1.9,0.2-3.9,0.4-5.8c0.2-1.4,0.3-2.9,0.4-4.3c0.2-5.7,3.2-8.5,9.3-8.9c6.6-0.4,13.3-0.8,19.8-1.3c8.8-0.6,17.8-1.2,26.8-1.6
				c0.8,0,1.6-0.1,2.3-0.1c3.1,0,4.8,0.4,5.7,1.5c1.3,1.5,1.3,4.1,0.8,8.6c-0.3,3-0.8,5.9-1.4,8.8c-1.9,8.5-4.8,11.2-13,12.1
				c-5.2,0.5-10.6,0.7-15.8,0.9c-2.3,0.1-4.6,0.1-6.9,0.2l-0.5,0L305.6,816z M291.5,793.3c-6.3,0-6.7,3.5-7.2,8.2
				c-0.6,4.9,0.2,8.3,6.1,9.3c3.7,0.6,7.6,0.9,12.1,0.9c4.9,0,10-0.4,14.2-0.6c19.6-1.3,20-1.6,21.3-23.8c-13.4,3-29.3,6.1-45.8,6.1
				L291.5,793.3v-0.5V793.3z"/>
			<path class="st6" d="M334.5,785.3c-15.5,0.7-31,2-46.6,2.8c-5.6,0.3-8.6,2.7-8.8,8.4c-0.1,3.4-0.9,6.7-0.8,10
				c0.1,7.2,1.6,8.7,8.9,8.9c6.3,0.2,12.6,0,18.9,0c0,0.3,0,0.5,0,0.8c7.6-0.3,15.1-0.3,22.7-1.1c8.2-0.8,10.8-3.5,12.6-11.7
				c0.6-2.9,1.1-5.8,1.4-8.7C343.7,786.2,342.9,784.9,334.5,785.3L334.5,785.3z M316.6,811.5c-8.8,0.6-17.5,1.2-26.3-0.2
				c-6.1-1-7.1-4.5-6.5-9.8c0.6-4.9,1.1-8.7,7.8-8.7c15.5,0.1,30.7-2.6,46.8-6.2C337,809.5,336.6,810.1,316.6,811.5L316.6,811.5z"/>
			<path class="st6" d="M278.2,525.7c-14.3,0-28.8-3-43.1-8.8c-11.2-4.6-18.2-12.3-21.3-23.8c-3.5-12.9-3.1-25.7-2.3-36.6
				c0.5-6.4,1.5-12.9,2.4-19.1l0.5-3.5c2.3-15.6,11.1-26.3,26.1-31.9c13.5-5,27.8-7.4,43.9-7.4c1.4,0,2.8,0,4.3,0.1
				c1.6-0.2,3.3-0.2,5.1-0.2c6,0,12.3,0.9,18.4,1.7c1.5,0.2,3.1,0.4,4.6,0.6c20.3,2.7,38.1,21,40.4,41.8c1.2,10.6,1,21.3-0.6,31.6
				c-3.6,23.4-16.6,39.6-38.7,48C304.8,523.1,291.4,525.7,278.2,525.7L278.2,525.7z M272.6,400.8c-10.1,0-20.5,2.5-32.8,7.9
				c-10.7,4.7-17.2,13.2-18.9,24.5c-0.2,1.6-0.5,3.2-0.7,4.8c-1.4,9.4-2.9,19.2-3.1,29c-0.1,7.6,0.9,15.3,3.2,23.6
				c2.5,9.2,8,15.5,16.5,18.8c11.4,4.4,23.4,8.8,35.3,8.8c0.7,0,1.5,0,2.2-0.1c1.1,0,2.1,0,3.1,0c14.5,0,28.3-3.1,43.4-9.8
				c13.3-5.9,22.7-17.1,26.7-31.5c3.7-13.3,4.2-26.7,1.7-39.8c-3.7-19.5-19-32.9-38.9-33.9c-3-0.2-6.2-0.3-9.2-0.3
				c-6.5-0.2-13.3-0.4-19.9-1.3C278.4,401.1,275.5,400.8,272.6,400.8z"/>
			<path class="st6" d="M235.3,516.4c27.4,11.2,54.9,11.8,82.5,1.3c21.9-8.3,34.9-24.4,38.4-47.6c1.6-10.4,1.8-20.9,0.6-31.5
				c-2.3-20.1-19.7-38.7-40-41.3c-9.6-1.3-19.2-3-28.1-2.1c-17-0.4-32.8,1.7-48,7.3C226,408,217.3,418.4,215,434
				c-1.1,7.5-2.3,15-2.9,22.5c-1,12.2-1,24.4,2.3,36.4C217.4,504.4,224.2,511.9,235.3,516.4z M220.4,433.1
				c1.7-11.7,8.4-20.1,19.2-24.9c13.2-5.8,26.8-9.4,41.7-7.3c9.5,1.4,19.3,1.2,29,1.7c20.1,1.1,35.6,14.7,39.4,34.3
				c2.6,13.5,1.8,27-1.7,40.1c-3.9,14.4-13.3,25.7-26.9,31.8c-14.2,6.3-29.3,10.4-46.7,9.8c-12.4,0.6-25.1-3.8-37.7-8.8
				c-8.9-3.5-14.3-10.1-16.8-19.2c-2.1-7.7-3.3-15.6-3.2-23.7C216.8,455.6,218.8,444.4,220.4,433.1L220.4,433.1z"/>
			<path class="st6" d="M560.8,525.9c-16.1,0-32.3-3.9-47.9-11.6c-17-8.4-27.4-23.3-30.2-43.2c-1.6-11.3-1.8-21.6-0.7-31.6
				c2.3-21.3,20.3-40.1,40.9-42.7c1.5-0.2,2.9-0.4,4.4-0.6c6.4-0.9,13.1-1.7,19.2-1.7c1.9,0,3.7,0.1,5.4,0.3c0.9,0,1.9,0,2.9,0
				c16.4,0,30.9,2.5,44.4,7.6c14.4,5.4,22.9,15.4,25.2,29.7c2.3,14,4.6,29,3.8,44.1c-0.4,7-1.6,13.7-3.6,20
				c-2.8,8.8-7.9,15-15.1,18.4C593.3,522,576.9,525.9,560.8,525.9L560.8,525.9z M568.6,400.8c-1.9,0-3.9,0.1-5.8,0.3
				c-8.3,0.9-16.7,1.2-24.8,1.6c-2.2,0.1-4.5,0.2-6.7,0.3c-24.6,1.2-40.4,16.3-42.2,40.4c-0.7,8.7-0.2,17.7,1.4,27.6
				c2.8,16.8,11.8,29.3,26,36.3c15.2,7.4,30.5,11.2,45.5,11.2c7.7,0,15.4-1,22.9-3c30-7.9,38-19.2,37.2-52.5
				c0-6.6-1.3-14.7-2.7-23.2c-0.4-2.2-0.7-4.5-1.1-6.8c-1.5-10-6.5-17.4-14.7-22C591.2,404.1,579.7,400.8,568.6,400.8z"/>
			<path class="st6" d="M513.1,513.8c31.6,15.6,64.1,15.3,96.2,0c7.7-3.7,12.3-10.2,14.8-18.1c2.1-6.4,3.2-13,3.6-19.8
				c0.8-14.8-1.3-29.4-3.8-44c-2.4-14.6-11.3-24.1-24.9-29.3c-14.7-5.6-30.1-7.8-47.1-7.5c-8.9-0.9-18.9,0.8-28.9,2.1
				c-20.8,2.6-38.2,21.2-40.5,42.2c-1.1,10.6-0.7,21.1,0.7,31.5C485.8,490.2,496,505.4,513.1,513.8z M488.5,443.4
				c1.9-24.5,18-39.7,42.7-40.9c10.5-0.5,21-0.8,31.5-1.9c14.6-1.6,28.3,2.9,41.1,10c8.7,4.9,13.5,12.7,15,22.3
				c1.6,10.8,3.7,21.6,3.7,30c0.9,33.9-7.5,45.1-37.5,53c-24,6.3-47.2,2.2-68.7-8.3c-14.4-7-23.5-20-26.3-36.6
				C488.4,461.9,487.8,452.6,488.5,443.4L488.5,443.4z"/>
			<path class="st6" d="M252,757.6c-1.8,0-3.9-0.8-6.8-2.7l-0.1,0.1l-0.4-0.3c-6-5.5-6.7-8.8-2.9-13.6c2.2-2.8,5.3-4.4,8.5-4.4
				c1.9,0,3.8,0.6,5.4,1.8c4.9,3.5,5.9,9.8,2.3,15.1C256.1,756.3,254.3,757.6,252,757.6L252,757.6z M245.6,753.6
				c0.5,0.1,1.2,0.1,1.8,0.1c2.2,0,3.7-0.7,4.9-2.2c1.4-1.8,2.5-3.8,1.4-6.2c-0.7-1.4-1.8-2.3-3-2.3c-0.1,0-0.2,0-0.3,0
				c-2.6,0.3-4.3,1.8-4.7,4c-0.3,1.6-0.2,3.3-0.1,5C245.6,752.6,245.6,753.1,245.6,753.6z"/>
			<path class="st6" d="M255.5,738.8c-4.2-3-9.7-1.9-13.3,2.6c-3.6,4.5-2.9,7.5,2.9,12.9c0,0-0.3-0.3-0.3-0.3c0,0,0,0,0,0
				c0.1,0,0.2,0,0.3,0c0-0.1,0-0.2,0-0.3c-0.1-2.3-0.3-4.6,0-6.8c0.4-2.7,2.5-4.2,5.1-4.4c1.7-0.2,3.1,1,3.8,2.5
				c1.2,2.6,0.2,4.7-1.4,6.7c-2,2.6-4.6,2.5-7.3,2.2c-0.1,0-0.1,0-0.2,0c0,0,0,0.1,0,0.1c0,0,0,0.1,0,0.1c0,0,0,0,0.1-0.1
				c6.1,4.1,9.1,3.8,12.5-1C261.1,748.1,260.2,742.1,255.5,738.8L255.5,738.8z"/>
			<path class="st6" d="M300.5,507c-10.5-0.2-20.3-4.4-27.7-12.1c-7.7-8-11.8-18.6-11.6-29.8c0.4-22.4,18.4-40.6,40-40.6
				c0.2,0,0.5,0,0.7,0c22.1,0.4,39.8,19.3,39.4,42c-0.4,22.3-18.4,40.5-40.2,40.5C301,507,300.5,507,300.5,507z"/>
			<path class="st6" d="M300.5,506.5c22,0.3,40-17.5,40.3-40c0.4-22.4-17.2-41.1-38.9-41.5c-21.9-0.4-39.8,17.5-40.3,40.1
				C261.2,487.7,278.6,506.2,300.5,506.5L300.5,506.5z"/>
			<path class="st6" d="M537.7,507c-10.7-0.1-20.7-4.5-28.3-12.3c-7.5-7.9-11.6-18.2-11.5-29.2c0.2-22.6,18.2-40.9,40.1-40.9l0.4,0
				c10.7,0.1,20.7,4.5,28.2,12.4c7.5,7.9,11.6,18.3,11.4,29.3c-0.2,22.9-17.8,40.8-40.1,40.8C538,507,537.7,507,537.7,507z"/>
			<path class="st6" d="M537.7,506.5c22,0.2,39.7-17.7,39.9-40.3c0.2-22.5-17.3-41-39.2-41.2c-21.8-0.2-39.8,18-40,40.4
				C498.2,487.9,515.8,506.3,537.7,506.5z"/>
			<path class="st10" d="M302,506.7c-16.7,0-30.3-9.4-30.3-20.9S285.3,465,302,465s30.3,9.4,30.3,20.9S318.7,506.7,302,506.7z"/>
			<path class="st10" d="M331.8,485.8c0,11.2-13.3,20.4-29.8,20.4s-29.8-9.1-29.8-20.4s13.3-20.4,29.8-20.4S331.8,474.6,331.8,485.8
				z"/>
			<path class="st10" d="M538.4,506.7c-17.3,0-31.4-10.2-31.4-22.7c0-12.5,14.1-22.7,31.4-22.7c17.3,0,31.4,10.2,31.4,22.7
				C569.8,496.5,555.7,506.7,538.4,506.7z"/>
			<ellipse class="st10" cx="538.4" cy="483.9" rx="30.9" ry="22.2"/>
			<path class="st0" d="M518.6,452c-12.4,0-22.6-7.1-22.6-15.8s10.1-15.8,22.6-15.8c12.4,0,22.6,7.1,22.6,15.8S531,452,518.6,452z"
				/>
			<ellipse class="st0" cx="518.6" cy="436.2" rx="22.1" ry="15.3"/>
			<path class="st0" d="M283.3,452c-14.3,0-26-7.6-26-16.9s11.6-16.9,26-16.9c14.3,0,26,7.6,26,16.9S297.6,452,283.3,452z"/>
			<ellipse class="st0" cx="283.3" cy="435.1" rx="25.5" ry="16.4"/>
			<path class="st11" d="M178.8,82.7c-5.3,0-5.7-6-5.8-8c-0.9-14.9-0.6-29.4-0.2-43c0.2-6.2,2.2-9.6,6.8-11.7l0.1,0h7.8l0.1,0
				c14.4,5.4,14.6,5.8,11.5,20.9c-1.5,7-3.2,14.1-4.9,21c-0.9,3.8-1.9,7.7-2.8,11.6c-1.2,5.2-5.1,8.3-11.5,9.2
				C179.6,82.7,179.2,82.7,178.8,82.7L178.8,82.7z"/>
			<path class="st11" d="M187.5,20.5c14.1,5.3,14.3,5.4,11.2,20.3c-2.3,10.9-5.1,21.7-7.6,32.5c-1.4,5.9-6,8.1-11.1,8.9
				c-5,0.7-6.2-3.3-6.4-7.4c-0.8-14.3-0.6-28.6-0.2-42.9c0.2-5.6,1.7-9.1,6.6-11.3C179.9,20.5,187.5,20.5,187.5,20.5z"/>
			<path class="st6" d="M266.4,161.7c-2.4,0-4.3-1.3-5.6-3.7c-1.6-3.1-2.8-6.4,1.4-10l2.1-1.8c7.6-6.6,15.5-13.5,24.3-18.8
				c3.6-2.2,5.9-3.1,7.8-3.1c3.4,0,5.1,3.2,6.9,8.8c0.3,0.9,0.4,1.8,0.5,2.7c0.2,1.7,0.4,3.4,1.7,4.6l0.2,0.1v5.5l-0.2,0.1
				c-4.3,3.6-9.5,5.3-14.5,6.9c-2.4,0.8-5,1.6-7.3,2.6c-4.1,1.8-8.4,3.3-12.5,4.8l-1.6,0.6C268.5,161.5,267.4,161.7,266.4,161.7z"/>
			<path class="st6" d="M305.2,145.8c-6.3,5.4-14.4,6.3-21.7,9.5c-4.6,2-9.4,3.7-14.1,5.4c-3.4,1.2-6.3,0.6-8.1-2.8
				c-1.7-3.3-2.4-6.2,1.3-9.4c8.4-7.3,16.7-14.8,26.3-20.6c8.5-5.2,11-4.1,13.9,5.3c0.8,2.5,0.2,5.5,2.3,7.5L305.2,145.8
				L305.2,145.8z"/>
			<path class="st12" d="M227,296.4c-3.8,0-6.8-2-8.6-5.7c-0.9-1.9-1.6-2.5-2.5-2.5c-0.5,0-1.1,0.2-1.9,0.6
				c-0.8,0.4-1.8,0.6-2.7,0.6c-1.7,0-2.9-0.6-3.2-1.6c-1.7-4.6-5.7-6-9.9-7.4c-4.2-1.4-8.5-2.9-10.4-7.6c-0.3-0.9-0.9-1.2-2-1.2
				c-0.7,0-1.5,0.2-2.3,0.3c-0.3,0.1-0.6,0.1-0.9,0.2c-4.9,0.9-9.9,1.4-14.8,1.4c-39.6,0-74.3-29.6-80.7-68.7
				c-7-43,15.9-83.6,54.5-96.5c8.3-2.8,17.3-4.5,23.4-4.6c42.5,0.4,78.5,31.5,83.8,72.2c2.9,22.4-1.5,42.2-13.3,60.6
				c-1.4,2.2-2.1,3.5,0,5.3c1,0.9,2,2.4,2,3.6c-0.1,3.7,0.9,7.3,1.8,10.8c1.1,4.2,2.3,8.6,1.6,13.2c-0.2,1.3,0,2.1,0.5,3.2
				c2.3,4.8,2.4,10.1,0.1,14.7c-2.3,4.6-6.6,7.9-11.9,9C228.6,296.3,227.8,296.4,227,296.4z"/>
			<path class="st12" d="M164.9,104c43.3,0.4,78.2,32,83.3,71.7c2.8,21.8-1.4,41.8-13.3,60.2c-1.4,2.2-2.3,3.8,0.1,5.9
				c0.9,0.8,1.8,2.2,1.8,3.2c-0.2,8.2,4.6,15.7,3.4,24c-0.2,1.3-0.1,2.3,0.5,3.5c4.8,9.8-0.8,20.8-11.5,23
				c-4.7,0.9-8.4-0.9-10.4-5.1c-1.2-2.6-2.3-3.6-5.1-2.2c-1.7,0.8-4.7,0.8-5.3-0.8c-3.5-9.6-16.6-5.8-20.3-15.1
				c-1-2.4-3.6-1.4-5.7-1c-44.4,8.3-87.6-22.2-95-66.9c-7-42.7,15.8-83.1,54.1-95.9C150.3,105.7,159.2,104,164.9,104z"/>
			<path class="st11" d="M51.6,181.7c-1.2,0-2.4,0-3.6,0c-5.6-0.1-10.9-0.1-16.2-1.1c-4.7-0.9-7.5-3.1-8.6-7l-0.2-0.8
				c-1.1-3.7-2.3-7.6-2.8-11.5c-0.5-3.8,0.1-6.7,1.7-8.5c1.4-1.5,3.4-2.3,6.1-2.3c1.1,0,2.3,0.1,3.6,0.4c4.4,0.9,9.1,2.3,13.9,4.1
				c3.8,1.5,7.7,3.1,11.4,4.7c4.1,1.7,8.3,3.5,12.5,5.1c3.2,1.2,6,2.6,5.4,7.2c-0.5,3.9-1.4,8.2-6.9,9.2c-3,0.5-5.9,0.6-8.4,0.6
				c-0.8,0-1.6,0-2.4,0c-0.8,0-1.5,0-2.3,0C53.5,181.6,52.5,181.6,51.6,181.7L51.6,181.7C51.6,181.7,51.6,181.7,51.6,181.7z"/>
			<path class="st11" d="M51.6,181.2c-7.1-0.1-13.4,0-19.6-1.1c-4.2-0.8-7.1-2.7-8.3-6.7c-1.2-4-2.5-8.1-3-12.2
				c-1-8,2.8-11.5,10.8-9.9c4.7,1,9.4,2.4,13.9,4.1c8,3.1,15.8,6.7,23.9,9.8c3.4,1.3,5.6,2.7,5.1,6.6c-0.5,4.2-1.5,7.8-6.5,8.8
				C62.2,181.6,56.5,180.9,51.6,181.2z"/>
			<path class="st13" d="M78.4,307c-1.3,0-2.7-0.4-4.1-1.3c-1.8-1.1-3.5-2.2-5.3-3.2c-2.5-1.5-5.1-3.1-7.6-4.7
				c-1.3-0.8-4.8-3.1-2.4-6.9l0.3-0.5c6.3-9.9,12.9-20.2,22.1-28.3c1.5-1.3,3-1.9,4.7-1.9c1.9,0,3.7,0.8,5.5,1.6
				c0.4,0.2,0.8,0.4,1.2,0.6c1.9,0.8,3.7,1.8,3.6,4.8l0,0.1l0,0.1c-1.4,4-2.5,8.2-3.6,12.2c-2.2,8.2-4.5,16.7-9.3,24.1
				C82.3,305.8,80.5,307,78.4,307z"/>
			<path class="st13" d="M96.1,267c-4.2,11.9-5.7,25.1-12.8,36.3c-2.1,3.3-5.2,4.1-8.7,1.9c-4.3-2.7-8.6-5.2-12.9-7.9
				c-2.2-1.4-4.1-3.3-2.2-6.2c6.5-10.3,13-20.6,22.3-28.7c3.9-3.4,7.4-1.2,11,0.3C94.6,263.5,96.2,264.4,96.1,267z"/>
			<path class="st6" d="M143.8,345.3c-0.5,0-1.1,0-1.6-0.1c-5.9-0.9-12-1.6-17.9-2.3l-0.8-0.1c-2.3-0.3-3.6-0.9-4.2-2
				c-0.6-1.1-0.5-2.6,0.5-4.6c3.4-7.4,6.8-14.9,10-22.2c2-4.5,4-8.9,6-13.4c0.8-1.7,2.2-4.9,4.9-4.9c0.6,0,1.2,0.1,1.8,0.4
				c0.8,0.4,1.6,0.7,2.4,1c3.2,1.2,6.8,2.5,7.5,7c0.3,1.9,0.2,3.9,0.1,5.8c0,0.8-0.1,1.7-0.1,2.5c0.5,6.9-0.8,13.7-1.9,20.3
				c-0.4,2.4-0.9,4.8-1.2,7.2C148.7,343.6,147,345.3,143.8,345.3z"/>
			<path class="st6" d="M151.9,312.5c0.6,9.3-1.8,18.3-3.1,27.4c-0.6,3.9-2.5,5.4-6.5,4.8c-6.2-0.9-12.5-1.7-18.7-2.4
				c-3.9-0.5-5.1-2-3.4-5.9c5.4-11.8,10.7-23.7,16-35.6c1.2-2.5,2.8-5.7,5.9-4.2c3.7,1.7,8.9,2.3,9.7,7.6
				C152.3,306.9,151.9,309.7,151.9,312.5L151.9,312.5z"/>
			<path class="st14" d="M180.7,76.2c-0.1,0-0.2,0-0.3,0c-0.9-0.1-1.6-0.4-2.1-0.9c-0.8-0.9-0.6-2.3-0.4-3.5
				c0.1-0.6,0.1-1.2,0.1-1.6c-0.4-4.5-0.6-9.2-0.7-13.6c-0.1-1.6-0.1-3.2-0.2-4.8h-0.5v-0.5c0-1.9,0-3.7,0-5.6
				c0-4.4,0.1-8.9-0.1-13.3c-0.1-1.9,0.2-3.2,1-4c0.7-0.7,1.6-1,2.9-1c0.2,0,0.5,0,0.8,0c0.1,0,0.2,0,0.3,0c0.3,0,0.5,0,0.8,0
				c0.2,0,0.5,0,0.8,0c0.5,0,1,0,1.5,0c4.4,0,7.3,0.3,8.7,2c1.5,1.8,1.1,4.9-0.1,10.3c-1.2,5.3-2.5,10.7-3.8,15.9
				c-1.2,5-2.5,10.2-3.7,15.3C184.9,74.3,183.1,76.2,180.7,76.2z"/>
			<path class="st14" d="M177.1,51.3c0-6.3,0.2-12.6-0.1-18.9c-0.1-3.3,0.9-4.7,4.2-4.4c0.6,0.1,1.3-0.1,1.9-0.1
				c10.8-0.2,12,1.1,9.6,11.7c-2.3,10.4-5.2,20.7-7.5,31.2c-0.6,2.9-2.2,5.2-4.7,5c-3.4-0.2-1.8-3.6-1.9-5.6
				c-0.5-6.3-0.7-12.6-1-18.9C177.4,51.3,177.3,51.3,177.1,51.3z"/>
			<path class="st14" d="M267.9,154.8c-1.3,0-2.4-0.7-3.2-2.2c-1.5-2.6,0.3-3.8,1.7-4.7c0.2-0.1,0.3-0.2,0.5-0.3
				c2.1-1.4,4.1-2.9,6.2-4.4c5.5-3.9,11.3-7.9,17-11.7c2.5-1.7,3.9-2.5,5-2.5c1.8,0,2.3,2,3.1,6c0.2,1.1,0.5,2.2,0.7,3.3l0.4,1.6
				c0.7,3.1-1.3,4.3-3.5,5.1l-3.1,1.1c-7.3,2.6-14.9,5.3-22.2,8.2C269.4,154.6,268.6,154.8,267.9,154.8z"/>
			<path class="st14" d="M298.8,139.9c0.6,2.7-1,3.7-3.2,4.5c-8.5,3-16.9,6-25.3,9.3c-2.3,0.9-3.9,1-5.2-1.4c-1.4-2.5,0.5-3.4,2-4.4
				c7.7-5.4,15.4-10.9,23.2-16.1c5.7-3.7,6-3.4,7.4,3.2C298.1,136.7,298.5,138.3,298.8,139.9L298.8,139.9z"/>
			<path class="st15" d="M165.8,267.1c-34.1,0-63.7-25.3-72-61.5c-4.2-18.2-1.5-37.7,7.5-54.8c9-17.1,23.4-29.9,40.5-36.1
				c8.3-3,16.9-4.5,25.6-4.5c18.4,0,36.1,6.8,50,19.1c14.2,12.6,23.1,30,25.1,49.1c3.4,34.1-9.4,60.6-38.1,78.7
				c-10.3,6.5-22,9.6-38,10L165.8,267.1L165.8,267.1z"/>
			<path class="st15" d="M166.3,266.6c-33.5,0.3-63.7-24.8-72-61.1c-8.6-37.4,12.6-77.6,47.7-90.3c45.8-16.6,95.1,14.5,100,63.3
				c3.4,33.8-9.1,60-37.9,78.2C193.2,263.6,180.8,266.2,166.3,266.6z"/>
			<path class="st16" d="M199.8,274.4c-1.5,0-2.8-0.6-3.9-1.7c-1.4-1.4-2.3-2.4-2.1-3.6c0.2-0.9,1.1-1.7,2.9-2.4
				c10.8-4.2,20.6-10.9,29.8-20.5c0.3-0.3,0.6-0.8,0.9-1.2c0.7-1.1,1.5-2.3,2.8-2.3c0.3,0,0.7,0.1,1,0.2c2.5,1.1,2.6,4.1,2.7,7.2
				l0,0.2c0.2,2.2-1.1,4.7-3.7,7.3c-8,7.9-18.1,12.3-27.9,16.1C201.5,274.3,200.6,274.4,199.8,274.4z"/>
			<path class="st16" d="M233.4,250.5c0.2,2.4-1.4,4.8-3.6,7c-7.8,7.8-17.7,12.1-27.7,16c-2,0.8-4.1,0.7-5.9-1
				c-2.1-2.1-3.4-3.6,0.7-5.1c11.6-4.5,21.4-11.6,30-20.6c1.2-1.3,2-4.1,4.1-3.1C233.3,244.6,233.3,247.4,233.4,250.5L233.4,250.5z"
				/>
			<path class="st16" d="M212.6,282.8c-1.7,0-2.7-1.1-3.7-2.3c-0.6-0.7-1.2-1.3-1.9-1.9l-0.7-0.5l0.8-0.4
				c9.7-4.4,19.8-9.4,27.5-18.1l0.4-0.5l0.4,0.5c3.1,4.1,2.7,7.7-1.4,10.9c-5.9,4.6-12.2,8-18.8,11.5
				C214.2,282.6,213.4,282.8,212.6,282.8z"/>
			<path class="st16" d="M234.9,260c3.3,4.3,2.1,7.5-1.3,10.2c-5.8,4.5-12.2,8-18.7,11.4c-4.1,2.1-4.9-1.5-7.6-3.4
				C217.9,273.4,227.5,268.4,234.9,260L234.9,260z"/>
			<path class="st16" d="M228.8,290.5c-1.7,0-3.4-0.7-5.1-2.1c-1.5-1.2-2.2-2.2-2.1-3.2c0.1-1.3,1.4-2.2,2.8-2.9
				c1.9-1.1,3.6-2.3,5.4-3.5c1.3-0.9,2.6-1.8,4-2.7c0.3-0.2,0.6-0.5,0.9-0.8c0.6-0.6,1.3-1.3,2.2-1.3c0.5,0,1,0.2,1.6,0.7
				c1.8,1.5,1.7,3.9,1.5,5.7c-1.3,4.8-4.1,8-8.1,9.6C230.7,290.3,229.7,290.5,228.8,290.5z"/>
			<path class="st16" d="M239.3,280.2c-1.1,3.9-3.4,7.4-7.8,9.2c-2.8,1.1-5.1,0.5-7.5-1.4c-2.9-2.3-2.4-3.6,0.6-5.3
				c3.3-1.8,6.2-4.3,9.4-6.3c1.2-0.8,2.2-3.1,4.1-1.5C239.3,276.1,239.6,277.9,239.3,280.2L239.3,280.2z"/>
			<path class="st14" d="M51.4,175.5c-1.9-0.1-3.7-0.3-5.5-0.4c-4.3-0.3-8.3-0.6-12.4-1c-2.5-0.2-5-3.8-6.5-7
				c-1.5-3.3-2.8-8-1.2-10.2c0.7-1,1.6-1.4,2.8-1.4c0.7,0,1.3,0.1,2,0.3l0.4,0.1c7.5,1.6,14.9,4,22.1,6.4c4.4,1.4,8.9,2.9,13.4,4.2
				c2.1,0.6,2.8,1.8,2.3,3.8l-0.1,0.2c-0.4,1.7-1,3.9-3.7,4.1c-3.2,0.2-6.4,0.5-9.5,0.7L51.4,175.5
				C51.4,175.5,51.4,175.5,51.4,175.5z"/>
			<path class="st14" d="M51.4,175c-6.1-0.5-12-0.8-17.8-1.3c-4.3-0.4-9.8-12.9-7.3-16.5c1.2-1.8,3-1.2,4.6-0.9
				c12.1,2.5,23.6,7.2,35.5,10.6c1.9,0.5,2.4,1.5,1.9,3.2c-0.5,1.8-0.8,3.8-3.3,3.9C60.4,174.3,55.8,174.7,51.4,175z"/>
			<path class="st14" d="M76.2,299.4l-0.1-0.1c-0.8-0.5-1.7-1-2.7-1.5c-2.3-1.2-5-2.6-6.8-4.6c-2.1-2.2-0.2-4.2,1.4-5.9
				c0.5-0.5,1-1,1.3-1.5l0.6-1c4.3-6.4,8.7-13.1,14.5-18.5c0.2-0.2,0.3-0.3,0.5-0.5c0.6-0.7,1.3-1.4,2.3-1.4c0.5,0,1,0.2,1.5,0.6
				c1.3,1,1.7,2.3,1.2,3.9c-0.6,1.9-1.1,3.8-1.7,5.7c-2.2,7.4-4.5,15.1-7.9,22.3c-0.5,1.1-1.2,2.5-3.6,2.5
				C76.5,299.4,76.2,299.4,76.2,299.4L76.2,299.4z"/>
			<path class="st14" d="M76.4,298.9c-2.9-1.8-6.9-3.3-9.5-6.1c-2.3-2.5,1.4-4.7,2.7-6.8c4.5-6.8,9-13.7,15-19.4
				c1-0.9,1.9-2.6,3.6-1.3c1.1,0.8,1.5,1.9,1,3.3c-2.9,9.4-5.4,19-9.6,27.9C79.2,297.7,78.7,299,76.4,298.9z"/>
			<path class="st14" d="M141.7,339.5c-0.3,0-0.6,0-1-0.1c-3.4-0.6-6.9-1.1-10.5-1.6c-1.5-0.2-3.1-0.4-4.7-0.6l-0.6-0.1l3.9-9.2
				c3.4-8.1,6.7-15.8,10-23.5c0.1-0.2,0.2-0.4,0.2-0.6c0.6-1.4,1.3-3.1,2.9-3.1c0.6,0,1.2,0.2,1.9,0.6c0.6,0.4,1.3,0.6,2,0.9
				c2.1,0.8,4.8,1.8,4.1,5.7l-1.4,7.3c-1.3,6.9-2.6,14.1-4,21.1C144.3,337.6,143.9,339.5,141.7,339.5L141.7,339.5z"/>
			<path class="st14" d="M125.5,336.7c4.8-11.3,9.2-21.7,13.7-32.1c0.8-1.8,1.5-4.6,4.3-2.8c2.3,1.5,6.7,1.4,5.8,6.1
				c-1.8,9.5-3.5,18.9-5.3,28.4c-0.3,1.6-0.7,3.1-3.3,2.7C135.9,338,130.9,337.5,125.5,336.7z"/>
			<path class="st14" d="M115,236.9c-10.2-10.9-23.5-39.1-15.7-68.2c1-8.8,5.1-18.5,11.4-27.4c9.9-13.8,23.3-22.8,34.2-22.8
				c8.4-3,16.6-4.6,24.4-4.6c30.3,0,45.8,23.2,46,23.5l-0.7,0.7c-12-9.5-25-14.3-38.8-14.3c-5.9,0-11.8,0.9-17.5,2.6
				c5,10,1.2,27.1-9.4,42.1c-9.9,13.9-23.4,22.9-34.3,22.9h0c-3.4,0-6.4-0.9-8.9-2.6c0,0-0.1-0.1-0.1-0.1
				c-1.1,25.1,10.1,47.6,10.2,47.8L115,236.9L115,236.9z"/>
			<path class="st14" d="M214.9,137.6c0,0-23.2-35.6-69.9-18.7c-10.4,0-23.8,8.5-33.9,22.6c-6.5,9.1-10.3,18.8-11.3,27.2
				c-7.7,28.4,5.2,56.7,15.6,67.8c0,0-11.8-23.2-10.2-49.1c0.3,0.2,0.6,0.5,0.9,0.7c10.3,7.3,29.3-1.7,42.4-20.1
				c11-15.5,14.4-32.6,9.1-42.1C170.2,122.1,192.2,119.7,214.9,137.6L214.9,137.6z"/>
		</g>
	</g>
</g>
</svg>
